<svg xmlns="http://www.w3.org/2000/svg" viewBox="0 0 1215.63 409.43"><defs><style>.cls-1,.cls-13,.cls-2,.cls-7{fill:#fff;}.cls-1{fill-rule:evenodd;}.cls-2{font-size:116.57px;font-family:Montserrat-ExtraBold, Montserrat ExtraBold;font-weight:800;letter-spacing:0.04em;}.cls-3{letter-spacing:0.02em;}.cls-4{letter-spacing:-0.01em;}.cls-5{letter-spacing:0.03em;}.cls-6{letter-spacing:0.02em;}.cls-13,.cls-7{font-size:58.28px;font-family:Montserrat-Regular, Montserrat;}.cls-7{letter-spacing:0.04em;}.cls-8{letter-spacing:0.02em;}.cls-9{letter-spacing:0.04em;}.cls-10{letter-spacing:0.03em;}.cls-11{letter-spacing:0.04em;}.cls-12{letter-spacing:0.04em;}.cls-13{letter-spacing:-0.02em;}.cls-14{letter-spacing:-0.02em;}.cls-15{letter-spacing:-0.03em;}.cls-16{letter-spacing:-0.02em;}.cls-17{letter-spacing:-0.03em;}.cls-18{letter-spacing:-0.02em;}</style></defs><g id="Layer_2" data-name="Layer 2"><g id="IMPLAN"><path class="cls-1" d="M289,362.26l-5.71-3.13,2.91,5.67,2.8-2.54Zm-46.81-23.61a29.85,29.85,0,0,1,.7,8.4c-.13,2.16-.62,4.44-.8,6.68-.39.24-.76.46-1.15.67-20.73,11.67-46,11.12-67.48,2.24-.43-.18-.22-.08-.63-.26a46.55,46.55,0,0,1-1.61-9.88,7.53,7.53,0,0,1-5.49,4c-3.63.6-7.16-1.5-9-5-3.94,1.24-8.93-2.2-9.6-6a9.92,9.92,0,0,1-7.08-8,6.74,6.74,0,0,1-.19-1.84,7.44,7.44,0,0,1-3.41-1.91,8.71,8.71,0,0,1-1.75-2.28,10.85,10.85,0,0,1-1.18-4.53l-.08-1.62h-4.48l-2.3-3.49.39-28.28v-1.94l.87-59.28.18-.38a4.69,4.69,0,0,1,1.33-.65,9.08,9.08,0,0,1,4-6.41c4.56-3.23,10.49-3.7,16.34-2.15a12.88,12.88,0,0,1,13,1.66,10.62,10.62,0,0,1,5.37-1.65,7,7,0,0,1,5.35,2.55,8.34,8.34,0,0,1,3.91-.44c2.22.37,3.11,1.68,4.4,3.26a9.27,9.27,0,0,1-4.62,2.42,13.55,13.55,0,0,1-8.27-1.47c-.12-.05-3.11,1.75-5.55,1.37a9.54,9.54,0,0,1-4.29-1.65c-2.24,1.51-4.11,2.53-6.89,2.44a15.92,15.92,0,0,1-9.32-3.41c-1.82,1.41-3.77,3-4,3.87l.64.39v.29l.73,55c5.88-.95,11.52-.25,15.67,2.82.43-5.23,1.59-8.07,1.72-8.13l4,1.92a25.35,25.35,0,0,0-3.91,6.08c10.47-3,16,.54,19.92,6.76V283l1.89,1,11.77,6.45V283l13.66,7.86V283L215,289.39h54.27c0-.23,0-.45,0-.67l2.82.39a8.67,8.67,0,0,1-2.82-6.77l2.82.4c-1.19-1.13-2.46-2.3-2.82-6.78l2.82.39c-2.23-2.44-2.47-3.68-2.82-6.77L272,270c-2.23-2.26-2.55-5.07-2.82-6.81l2.82.44c-1.78-1.64-2.4-5.08-2.34-7.42V224.54l4.71,3.35v-4.54l3.26,2.34v-3.21l2.23-2.23,1.9,2.06v3.56l3.42-2.39v3.84l4.63-2.91v31.94c.07,2.65-1.24,5-2.35,7.24l2.83-.38A10,10,0,0,1,287.5,270l2.85-.39c-.3,2.79-1.26,5.35-2.84,6.77l2.84-.39c-.3,3.37-.94,5.15-2.84,6.78l2.84-.4a8.61,8.61,0,0,1-2.84,6.77l2.84-.39a8.5,8.5,0,0,1-2.84,6.78l2.84-.4c0,3-1.47,6.12-2.84,6.77l2.84-.38c-.65,5.42-2.89,9.21-8.48,11,0,2.94.05,5-.05,6.75h-5.73a13.13,13.13,0,0,1-.66,9.73,1.32,1.32,0,0,1-.81.68,1.57,1.57,0,0,1-1.37-.24c-.53,5.95-5.51,10.38-5.73,10.58l-1,.86c-.66-.62-1.31-1.23-1.93-1.89a19.09,19.09,0,0,1-7.58,6.24c-.35-.7-.74-1.42-1-2.14a19.88,19.88,0,0,1-8.86,3.77,24.89,24.89,0,0,1-2.76-8.85c-.73.23-1.48.42-2.22.63Zm-.84-2.95a21.45,21.45,0,0,1,.92-6.91c-.48,0-1-.07-1.46-.11l-1.3-.12.06-1.28a19.62,19.62,0,0,1,2.32-7.95h-24.6a27.62,27.62,0,0,1,.87,8c0,5.62.3,8.86,5.21,10.4a5,5,0,0,0,5.65-1.93,7.37,7.37,0,0,0,.12-8.64,2,2,0,0,1,.08-2.44,2.06,2.06,0,0,1,2.43-.59c4.35,1.79,7.8,6.1,9.7,11.54ZM215.07,280h2.85V265.51h-2.85V280Zm9.67-18.8c3.59,0,6.75-1.95,7.24-5.27h-3c-.18,2-1.83,3-3.73,3a5.17,5.17,0,0,1-4.93-5.35c0-2.64,1.71-5.33,4.54-5.43a3.74,3.74,0,0,1,4,2.84h3a7,7,0,0,0-7-5.09,7.6,7.6,0,0,0-7.57,7.43,7.73,7.73,0,0,0,7.51,7.85Zm-1.07,15.55h6.24l1.44,3.27h3L228,265.54h-2.51l-6,14.45h2.81l1.37-3.27Zm3-7.43-2.13,5.26h4.39l-2.26-5.26Zm-16-23.1H199.08v2.21h4.34v12.25h2.91V248.4h4.3v-2.21Zm23.3,14.46h2.91V246.19h-2.91v14.46Zm-28.06,19.83c3.61,0,6.76-2,7.28-5.26h-3.08c-.21,2-1.84,3-3.75,3-2.93,0-4.88-2.61-4.93-5.36s1.73-5.3,4.58-5.4a3.71,3.71,0,0,1,4,2.83h3a6.9,6.9,0,0,0-7-5.08,7.52,7.52,0,0,0-7.57,7.47,7.6,7.6,0,0,0,7.47,7.79Zm6.51-19.83h2.89V246.19h-2.89v14.46Zm-23.88,19.76a7.62,7.62,0,1,0-8-7.77,7.9,7.9,0,0,0,8,7.77Zm.21-13c-2.9,0-4.88,2.61-5,5.24a5,5,0,1,0,9.93,0,5.14,5.14,0,0,0-5-5.24Zm-15.22-55c-2.82-2.24-5.66-4.43-8.48-6.65l13.43-1.7c.94,1.2,7.62,7.07,7.62,7.47v18c2.73-.1,5.48-1.23,8.12-5.45h4.76l.38.57a9.69,9.69,0,0,0,8.38,4.57c3.93,0,6.7-1.89,8.68-5.14h4.75c2,3.25,4.76,5.14,8.72,5.14a9.47,9.47,0,0,0,4.51-.92v-16.4a19.56,19.56,0,0,0,4.47-8.45l9.37,1.18-8.44,6.64c17.08.94,34.38,1.06,51.49,1.51l-21.93-8.15c1.91-1.48,3.85-2.9,5.8-4.31-12.25-2-24.49-4.25-36.75-6.29,0-.28,5-9.89,5.39-11l.07-.11,18.54-8.3L255.82,193l37.81-31.1L276,167.18l3.25-9.1-3.51,1-37.41,11.3c-3.73-2.67-8.11-6-12.87-4.85l-2.87-1.78a9,9,0,0,0-8.41-.91l-2.81-1.8c-5.39-3.42-10-.54-12,1.2-1.19-.7-2.45-1.38-3.72-2.06a8.11,8.11,0,0,0-7.73.26c-3.53,1.92-6,6.09-7.09,11.7L134,158.07l3.23,9.15-15.9-4L157.48,193l-6.62-18.34,24.42,10.89a27.15,27.15,0,0,0-.71,6.76,24.91,24.91,0,0,0,.23,3l-36.66,6.2c1.91,1.42,3.85,2.82,5.76,4.24l-21.69,8.18,51.27-1.48Zm52.12,1.72c6.53-3.21,9.71-6.18,10.59-11.84-6-1-15.05-2.18-15.65-2-2.41,1-5.53,1.06-7.41-1l-2.67-.35c-1.51,1.49-3.34,1.41-4.71,1.41a19.09,19.09,0,0,1,7.75,11.05l-1.91.47c-1.66-5.43-4.64-9.56-10.11-11.62L181.1,203c.44.54,4.43,4.64,6.5,6.75,1.6,1.63,1.3,1.13,1.3,3.21v12.74a7.94,7.94,0,0,0,3.58-4.26h8.15c3.82,6.61,10.5,7.68,14,0h8.15c1.5,2.18,4.63,5.41,8.67,4.7.07,0,0-11.62,0-12.74a22.09,22.09,0,0,1-5.4,2.73l-.46-1.92Zm43.65-12.46-5,3.73,13.2,4.78-31.37-.86,8-6.27-21.45-2.74a8.25,8.25,0,0,0,4.18-4.11l32.42,5.47Zm6.12-40L272,171.2l10.14-3.6-20.8,17.24,5.2-14.61-22.44,10c.54-3.46-1.43-5.79-4.08-7.93l35.34-10.61Zm-42.28,8.53c4.36,2.68,10.27,5.9,8,12-.83,2.15-6.36,13.68-7.81,15.18a6.51,6.51,0,0,1-5.93,2c-1.56-.31-2.84-2-2.11-3.41.93-2.14,1.94-4.2,3-6.25a98.83,98.83,0,0,0,4.52-10c1.86-4.92-.43-8.22-3.92-10.95-.37-.29-.74-.58-1.13-.85,2.17,0,3.67,1.21,5.41,2.3Zm-12-4.25a67.8,67.8,0,0,1,7,4.63c2.68,2.2,4.27,4.76,2.88,8.53-1.33,3.37-2.84,6.54-4.49,9.78-1.06,2.07-2.12,4.14-3,6.29a6.72,6.72,0,0,1-5.32,3.88c-2.7.33-5.27-1.75-4.17-4.23l2-4.48c1.94-4.43,3.92-8.8,5.64-13.33,1.95-5.12-.58-8.45-4.24-11.22-.38-.3-.78-.59-1.18-.86a6.42,6.42,0,0,1,5,1Zm-11.25-2.69c4.6,2.92,12.37,6.45,9.82,13.12-1.73,4.5-3.65,8.88-5.61,13.28l-2.31,5.18c-1.5,3.53-7.93,5.31-9.62,2a23.93,23.93,0,0,0,3.52-5.24c2.57-4.76,9.46-18.53,3.22-22.57-2.51-1.63-5.05-3.21-7.59-4.8,2.49-2.21,5.57-2.88,8.57-1Zm-20.44-.53a5,5,0,0,1,4.64-.31c4.79,2.46,9.18,5.3,13.73,8.14,4.72,3.1-1.91,16.51-3.88,20.15-1.48,2.71-2.53,5-4.74,5.76s-6-.06-6.84-2.53a10.31,10.31,0,0,0,4.81-6.61c4.13-.83,10.26-3.11,11.12-7.76.8-4.27-2.74-7.11-6.48-8.07a1.87,1.87,0,0,0-1.52,0c-3.64,1.14-7.69,2.39-11.21,3.88l-5.55-2.07c.59-4,2.16-8.54,5.92-10.62Zm-1.1,30.93c-3,.91-7.4,1.38-10.58,1.95a17.33,17.33,0,0,1-.27-3.29c0-3.72.22-8.86,3.63-11.19,2.61-1.79,14-5.92,18.69-7.45,1.09-.35,1.1-.5,2.25-.1,2.5.88,4.82,2.71,4.25,5.69-.36,2-2.14,3.35-3.81,4.24a21.5,21.5,0,0,1-6.39,2.09l-.83.11,0,.8a7.22,7.22,0,0,1-1.48,3.65,10.54,10.54,0,0,1-5.44,3.5Zm-41.63-23.45,5.1,14.36L131.68,168l9.54,3.18-3.36-9.51,49.5,14.86c-5.42,1.85-9,2.47-10.86,7l-29.85-13.32ZM144,202.87l47-8c1.57,3.1,5.34,4.56,9.66,2.65l1,1.24-42.5,5.43,8,6.25-31.83.85L149,206.61l-5-3.74ZM192.69,252l-2.12-.38c-1.08-.16-2.12-.71-2.13-1.71,0-1.39,1.92-2,3.28-1.95,2.39.12,3,1.28,3.18,2.85h2.87c-.07-1.23-.29-4.91-6.11-5-3.22-.07-6.09,1.67-6,4.45,0,2.5,2,3.36,4.28,3.84l2.77.6c1.24.29,2.43.72,2.5,2,0,1.5-2,2.17-3.71,2.16-1.86,0-3.61-.88-3.52-3h-2.81c-.08,3.74,3.15,5.17,6.5,5.16,3.12,0,6.27-1.51,6.27-4.77,0-2.65-2.54-3.77-5.21-4.27Zm-54.45,52c-4.14,2.84-6.92,12.59-.53,13.7a4.51,4.51,0,0,0,4.68-2.31,9.22,9.22,0,0,1,.41-5.2c-3.51-1.07-4.54-6.19-4.56-6.19Zm16.83,8.18a7.88,7.88,0,0,1-.34,2.93,4.64,4.64,0,0,0,4.23,3c3-.12,4.4-3.65,4.27-6.26a7.54,7.54,0,0,0-.78-2.9,7.65,7.65,0,0,1-2.23-2.16,25.13,25.13,0,0,1-5.15,5.4Zm16.75-9.1c.29,3.89-4,8.17-7.1,6.64a8.41,8.41,0,0,1,.33,2.23c3.37,4.53,8.9,3.17,9.87-.87.5-2.1-.22-4.9-3.1-8Zm-11.27,26.68a6.85,6.85,0,0,1-2.89,4.42c2.8,9.45,16.47.32,7.44-7.42a8.24,8.24,0,0,1-4.55,3Zm-5.66-7.46c.14,2.63,1.94,6,5,5.84s4.38-3.65,4.17-6.29a7.11,7.11,0,0,0-1.22-3.75,5.67,5.67,0,0,1-3.75,1.73,7.59,7.59,0,0,1-3.54-1.05,7.39,7.39,0,0,0-.62,3.52Zm10.84,1.71a4.21,4.21,0,0,0,5.5,1.57c2.71-1.14,4.48-4.56,2.06-9.62-1.64.47-4.2,2-8.29-1.48a11.17,11.17,0,0,1-1.1,2.16,9.31,9.31,0,0,1,2,5.11,13.23,13.23,0,0,1-.17,2.26Zm-4.45-18.95c3,5.79,8.7,2.69,9-2.86l-.9-1.81a12.85,12.85,0,0,1-5.66-3.42,19,19,0,0,1-2.45,8.09Zm-2.6,24.71a6.34,6.34,0,0,1-4.2-3,5.59,5.59,0,0,1-4.45,2.31c.77,2.19,2.82,4.6,5.35,4.16a4.31,4.31,0,0,0,3.3-3.46ZM153.56,325a9.14,9.14,0,0,1,.26-6.78l-.25-.44c-1.83,2.61-5.2,4.17-8.14,2.25a7.5,7.5,0,0,0-.11,1.34c0,2.63,1.54,6.07,4.55,6.09a4.07,4.07,0,0,0,3.69-2.46Zm-2.92-6.68a6.57,6.57,0,0,0,2.6-5.29,46,46,0,0,1-3.43-5.8,7.12,7.12,0,0,1-5.1,3.26,7.42,7.42,0,0,0-.62,2.2,7,7,0,0,0,1.49,5.32,3.67,3.67,0,0,0,5.06.31Zm-6.95-9.59c2.45.38,4.45-1.64,5.29-3.74a19.82,19.82,0,0,1-1.09-7.24l-.28-.23c-2.37,1.67-5.26,3.8-7.78,5.25.43,2,1.28,5.24,3.86,6Zm-4.18,18.67a4.6,4.6,0,0,0,4.93-1.88,9.23,9.23,0,0,1-.57-6.86,7.82,7.82,0,0,1-.75-1.15c-2.64,3-5.65,3-7.75,2.13.06,4.31,1.74,7.12,4.14,7.76Zm8.51,10c1.19-.18,3.59-1.77,4.09-3a8.29,8.29,0,0,1-4-5.52,5.67,5.67,0,0,1-2.64-1.85c-.42,1.11-1.49,2.12-3.55,2.65-.48,2.77,2.11,8.34,6.14,7.71Zm7.28,6.22c1.66-.28,2.94-2.42,3.36-4.12a10.9,10.9,0,0,1-2.7-4.53,5.13,5.13,0,0,1-2.17.06,9.18,9.18,0,0,1-4.52,4.22c.7,2.31,3.35,4.82,6,4.37Zm7,4.54c3.88,1.68,7.54-.92,7.75-5.05a11.16,11.16,0,0,0-1.66-6,7.65,7.65,0,0,1-7.75,2.84c-.27.83-1.29,3.6-2.28,4.19a7.72,7.72,0,0,0,3.94,4Zm9.6-10.5a2.37,2.37,0,0,1,2.36-2,2.42,2.42,0,0,1,2.42,1.86c.74,3.19,2.28,5.14,4.35,5.5a4,4,0,0,0,3.7-1.25c1.5-2.28.86-4.13,0-6.71s-2-5.79-.67-10a15,15,0,0,1,3.15-5.73h-10.6a7.27,7.27,0,0,1,0,1.55c-.3,3.67-3,7.53-7,7.69a10.46,10.46,0,0,1,.3,6.54,9.09,9.09,0,0,1,1.08,1.66,13.9,13.9,0,0,1,.69,1.77l.17-.95Zm53.46,19.59a16.24,16.24,0,0,0-.16-4.67,8.45,8.45,0,0,0-3.45-5.48,6.5,6.5,0,0,1-1.71,5.26,5.93,5.93,0,0,1-6,1.62c-2.26-.74-3.75-2.78-4.1-5.62-.44-3.72-1.78-6.37-4-7.85a9.54,9.54,0,0,0-5.07-1.46,13.73,13.73,0,0,1,2.37,8,8.57,8.57,0,0,1-2.73,6.33c-4.57,3.91-10.14,2.2-13.17.76a9.86,9.86,0,0,0,1.34,3.9,74.73,74.73,0,0,0,36.73-.8Zm-3-17c-6.59-2.06-7-6.95-7-12.84,0-6.13-.44-10.73-6.52-13.83l-.81-.42.22.89c1.12,4.49.4,11-2.93,14.43a7.33,7.33,0,0,1-7.73,1.85,7.21,7.21,0,0,1-4.73-4,11.25,11.25,0,0,1-.43-6.72l0-.22h-1.13c-2.46,1.32-3.95,3.89-4.78,6.5-1,3.15-.38,5.41.64,8.38,1.13,3.28,1.8,5.8-.25,8.92-1.26,1.95-4.18,2.78-6.4,2.4a7.62,7.62,0,0,1-5.63-4.86l-.62-1.45-.18,1.56a36.86,36.86,0,0,0,.66,13.2,74.07,74.07,0,0,0,10.75,3.68,9.84,9.84,0,0,1-.59-6.31l.39-1.55,1.35.93c3.45,2.37,8.59,3.63,12.07.65a6.09,6.09,0,0,0,1.82-4.47,11.4,11.4,0,0,0-3.49-8.37l-1.36-1.33,1.88-.47a13.18,13.18,0,0,1,9.82,1.58c3.28,2.21,4.67,5.89,5.14,9.68.17,1.44.8,3,2.31,3.47a3.24,3.24,0,0,0,3.28-.9c1.41-1.51,1.16-3.73.42-5.49l-.73-1.75,1.88.26c4.35.63,7.16,4.24,8.06,8.37a18.46,18.46,0,0,1,.33,4.8,73.35,73.35,0,0,0,11.24-5,36.66,36.66,0,0,0,.73-4.84c.37-6.41-1.65-14.43-6.79-18.67l-1-.87.37,1.29a10,10,0,0,1-1.6,8.66,7.58,7.58,0,0,1-8.63,2.87ZM203,318.74a.4.4,0,0,1-.38.58h-7.39a9.59,9.59,0,0,0,.09,5.94,5.18,5.18,0,0,0,8.11,1.43c2.83-2.93,3.36-9.39,1.92-13.2a2.28,2.28,0,0,1,.59-2.5,2.4,2.4,0,0,1,2.58-.46,14.69,14.69,0,0,1,7.31,5.74,5.83,5.83,0,0,0,.06-.84,6.91,6.91,0,0,0-13.65-1.36,6.53,6.53,0,0,0,.76,4.67Zm21-2.88a14.31,14.31,0,0,0-.17-3.51l.48-.44,4.14-3.4a17.66,17.66,0,0,0-1-2.24l-5.59.26h-.6l-.42-.47a13.73,13.73,0,0,0-2.63-2.41l-.51-.4.07-.57.27-5.16c-.78-.34-1.63-.65-2.47-.92l-3.71,3.79-.43.46a18.46,18.46,0,0,0-5,0l-.48-.46-3.7-3.79a25.54,25.54,0,0,0-2.46.92l.29,5.16,0,.57a21.5,21.5,0,0,0-3.53,3.28H196l-5.61-.26a23.21,23.21,0,0,0-1,2.24l4.13,3.4.48.44a19.66,19.66,0,0,0-.17,3.51h5.12l-.08-1.19c0-5.13,4.5-9.29,10.09-9.29S219,309.54,219,314.67l-.08,1.19Zm18.35,10.24c4.27.2,7.49-.76,9.6-2.84a9.14,9.14,0,0,0,1.64-2.31,11.1,11.1,0,0,1-.2-2.53,24.16,24.16,0,0,1-6.29-1.12c-.12.09-.26.17-.38.27-3.06,2.42-4.06,6.46-4.37,8.53Zm1.15,9.48a21.38,21.38,0,0,0,5.5-2.85,12.17,12.17,0,0,1-.32-4.58,17.14,17.14,0,0,1-3.57.64c-1.55,1.84-1.77,5.27-1.61,6.79Zm5.16,8.18a16.29,16.29,0,0,0,6.24-3.33,15.52,15.52,0,0,1-.55-2.71,22.19,22.19,0,0,1-3,.82c-.51-1-1-2-1.42-3a17,17,0,0,1-2.84,1.56,17.41,17.41,0,0,0,1.62,6.69Zm4.17-8.44c1.8-.58,5.41-2.07,7-4.93a10.62,10.62,0,0,1-.05-2.52c0-.23.07-.46.1-.68a21.57,21.57,0,0,1-2.49.82,1.41,1.41,0,0,1-1.57-.71c-.49-1-.91-1.91-1.26-2.81-.2.23-.42.48-.65.7a11.73,11.73,0,0,1-2,1.57c-1,2.19-.69,5.06.9,8.56Zm5.38,6.12a15.54,15.54,0,0,0,4.44-4.62,16.32,16.32,0,0,1-1.84-3.12,14.56,14.56,0,0,1-3.75,2.8,14.59,14.59,0,0,0,1.15,4.94Zm8.28-4.3a16.06,16.06,0,0,0,3.55-6,8.74,8.74,0,0,0,.34-3.17,23,23,0,0,1-5.1-4.18,13.53,13.53,0,0,1-1.86,1.55,8.17,8.17,0,0,0-.84,2.84c-.28,2.89,1,5.91,3.91,9Zm21.85-33.47c-4.05.5-7.29,2.08-8.44,6.38-1.54-4.47-4.65-5.82-8.62-6.29,0,2.83,2.82,5.8,5.52,7.09a5.64,5.64,0,0,0,3.9.64c3.66-.91,7.08-4,7.64-7.82Zm0-6.44c-4.05.49-7.29,2.06-8.64,6.28-1.54-4.48-4.64-5.82-8.61-6.29.59,3.85,3.89,6.9,7.68,7.84a2.9,2.9,0,0,0,1.93,0c3.66-.91,7.08-4,7.64-7.82Zm-5.59-70.17v32.11l1.43-1.07V225.91l-1.43,1.15Zm-3.71,26.3a9,9,0,0,0-1.28,4.63c0,2.19.73,3.22,2,4.77,1.22-1.55,2-2.58,2-4.77a8.85,8.85,0,0,0-1.25-4.54V223.5l-.65-1.16-.78,1.16v29.86Zm-3.8-27.62V258.1l1.4,1.07V226.88l-1.4-1.14Zm-4.13,33A8.6,8.6,0,0,0,274,264a10.82,10.82,0,0,0,5.73,3,10.84,10.84,0,0,0,5.75-3,9.14,9.14,0,0,0,3-5.31l-.11-30.88L286.88,229V259a11.69,11.69,0,0,0-4.2,2.41,12.7,12.7,0,0,0-2.92,4,11.51,11.51,0,0,0-2.91-4,10.73,10.73,0,0,0-4.29-2.41V228.84l-1.42-1.13v31Zm0,6.26c.6,3.83,3.89,6.9,7.68,7.84a2.84,2.84,0,0,0,1.93,0c3.66-.91,7.08-4,7.64-7.82-4,.49-7.28,2.06-8.64,6.3-1.54-4.48-4.64-5.82-8.61-6.3Zm0,6.44c.59,3.85,3.89,6.92,7.68,7.84a2.84,2.84,0,0,0,1.93,0c3.67-.91,7.09-4,7.64-7.83-4,.48-7.28,2.06-8.64,6.29-1.54-4.48-4.64-5.82-8.61-6.29Zm0,6.46c.59,3.85,3.89,6.9,7.68,7.84a2.9,2.9,0,0,0,1.93,0c3.66-.92,7.08-4,7.64-7.82-4.05.48-7.29,2.06-8.64,6.28-1.54-4.48-4.64-5.82-8.61-6.29Zm0,6.43c.59,3.85,3.89,6.92,7.68,7.84a2.84,2.84,0,0,0,1.93,0c3.66-.91,7.08-4,7.64-7.82-4.05.5-7.29,2.08-8.64,6.28-1.54-4.47-4.64-5.82-8.61-6.29Zm8.61,12.75c-1.54-4.48-4.64-5.82-8.61-6.29.59,3.85,3.89,6.91,7.68,7.84a2.9,2.9,0,0,0,1.93,0c3.66-.91,7.08-4,7.64-7.82-4.05.49-7.29,2.08-8.64,6.28Zm-10.91-5.51-.49,14c1.65.73,1.71,1,1.81,1.53a7.49,7.49,0,0,1-.6,4l-.16.43a16.84,16.84,0,0,1,4.84,4.38h3.34v-3.34l-.4-.11c-4.86-1.4-7.6-5.34-8-10.9l2.84.38c-1.93-1.13-2.83-4.34-2.83-6.76l2.83.39a6.7,6.7,0,0,1-2.43-4Zm4.54,35c.79-2.59,1.54-8.32-5.26-12.58a2.64,2.64,0,0,1-1.4-3.29,10.13,10.13,0,0,0,.69-2.53c-.67-.28-1.83-.75-3-1.2a5,5,0,0,1-1,2.77c-.38.46-1.31,1.15-3.17.75-2.25-.67-3.5-1.59-7.09-1a10.29,10.29,0,0,0-6.78,4.69,20.88,20.88,0,0,0,8.55,1.5,1.41,1.41,0,0,1,1.16.47,1.33,1.33,0,0,1,.32,1.18c-.44,2.05.07,4.65,1.51,7.73,1.61-.56,4.66-1.86,6.34-4.25a1.4,1.4,0,0,1,1.15-.59h0a1.42,1.42,0,0,1,1.16.6,19.74,19.74,0,0,0,6.85,5.71Zm-5.63-34.95H264l-7.05,15.18a36,36,0,0,1,4.39,1.08,4,4,0,0,0,.37-1.56,2.37,2.37,0,0,1,.94-2.05,2.21,2.21,0,0,1,2.3,0l2.81-12.61Zm-4.83,0h-3.77l-21.63,24.3h5.93a1.31,1.31,0,0,1-.36-1.55c0-.09,2.84-6.31,9.43-7.55l10.4-15.21Zm-5.32,0h-3.3L226.57,314.7l0,1.15h3.69l27.35-24.3Zm-4.81,0h-3.4L227.5,304l.67-.08H229l.37.62a18.18,18.18,0,0,1,1.25,2.59l22.19-15.53Zm-4.86,0h-2.7l-24.87,10-.05.65a20.45,20.45,0,0,1,2.1,1.94h.15l25.37-12.61Zm-4.79,0H217.67l1.19.62.59.36v3l.5.23.68.35v.7l-.21,2.74,22.7-8.05Zm-63.26-4.12.06,7.87c.59,1.08,1.11,2.2,1.66,3.29l.38.7,1.19,2.51-2.93.41-.85.11a28.32,28.32,0,0,1-5.13.26,15,15,0,0,1,2,3,9.52,9.52,0,0,1-.76,9.47l.35.79h15.49v-2.61l-4.28-3.6-.57-.47a24.84,24.84,0,0,1,2.39-5.34h.78l5.77.28a19.19,19.19,0,0,1,2.09-1.93l-.32-5.34v-.71l.71-.36a22.48,22.48,0,0,1,4.35-1.66l.77-.23.53.55,3.87,3.95h3l3.85-3.95.52-.55.78.23,1.33.43v-.74l-9.61-6.13,0,6.92-13.64-7.5-.05,7.52-13.71-7.18Zm-24.19.23c-3.55-6.43-17.57-5.81-24-1.47l-1.75.93,1.73.88c3.72,1.61,9.44,2.1,10.2,2.18-2.79,1.24-4.93,2.35-6.84,4.85a19.85,19.85,0,0,0-3.51,8.31v1.17c6.71-1.6,17.12-9.65,17.31-9.75l1-.8a22.39,22.39,0,0,0,4.1,17.31c10.16-7.86,8.19-17.4,8.17-17.51l1.22-.25c2.48,4.74,11,7.15,16.25,6.58-4-10.53-12.36-20.12-23.88-12.43Zm-24.11,10.51a14.18,14.18,0,0,1,5-7,19.3,19.3,0,0,1-5-1.32l-.08,8.3ZM177,220c-1.83-.34-4.21.43-7.07,2.16,2.75,1.28,7.58,2,10.11-.17a3.7,3.7,0,0,0-3-2Zm-10.26-1.61a16.85,16.85,0,0,0-6.33,3.39,6.9,6.9,0,0,0,3.09,1.13,5.92,5.92,0,0,0,4.45-.9,27.72,27.72,0,0,1,4.22-2.33c-.67-.7-2.24-1.77-5.43-1.29Zm-5.52,1a14.82,14.82,0,0,0-13-.74,18,18,0,0,0-3.81,2,12.61,12.61,0,0,0,7.75,3c3.55.05,6.28-2.44,9.1-4.27Zm-13.86-1.85c-5.65-.71-15.4.23-16.36,7.43a17.33,17.33,0,0,1,5.84.16,23.67,23.67,0,0,1,10.52-7.59Zm-17.81,98.32.26-26.86a15.39,15.39,0,0,1-1.6-1L128,305.86l0-.12,0,2.09v.09l-.13,7.94Zm.28-30.88.54-55.72h1.87l-.53,54.7a26.66,26.66,0,0,1,6.84-2.47l-.5-54.78c-1.78-1-7.11-.94-9-.05l-.76,59.26c.5-.32,1-.63,1.53-.94Zm1.57,30.88h1.39a11.2,11.2,0,0,1-.5-3.94,13.31,13.31,0,0,1,3-7.23,9.72,9.72,0,0,1-3.83,1l-.1,10.19Zm52.16-60.34v-9.33h-2.89v9.33c0,1.79-.84,3.27-3.5,3.3s-3.94-1.44-3.94-3.36l0-9.27h-2.87v9.27c0,3.19,2.32,5.71,6.51,5.64,4.84,0,6.66-2.31,6.66-5.58Zm66.7,5.13h3l-6.4-14.46h-2.51l-6,14.46h2.87l1.34-3.23h6.27l1.42,3.23Zm-6.81-5.41h4.42L245.53,250l-2.1,5.26Zm2.22,22.56h-7.24V265.51h-2.9V280h10.14V277.8Zm-76.9-22.18v-9.43h-2.9v10.27c0,1.24-.64,2.54-2.1,2.54s-2.09-.76-2.12-2.54h-2.84a4.41,4.41,0,0,0,4.78,4.64c4.28-.15,5.18-2.51,5.18-5.48Zm3.86,22.56c-1.82,0-3.55-.83-3.49-2.93h-2.8c0,3.72,3.14,5.22,6.5,5.17,3.13,0,6.28-1.48,6.28-4.77,0-2.69-2.54-3.8-5.23-4.29l-2.09-.35c-1.07-.21-2.11-.73-2.14-1.75,0-1.38,1.91-2,3.3-1.92,2.34.1,3,1.26,3.13,2.82h2.87c0-1.2-.27-4.87-6.11-5-3.21,0-6.07,1.66-6,4.47,0,2.52,2,3.35,4.27,3.86l2.8.59c1.18.27,2.4.74,2.46,2,.1,1.51-2,2.14-3.71,2.11Zm89.41-46-3-2a11.27,11.27,0,0,1-8.88,4.18,10.91,10.91,0,0,1-9.42-5.19h-3.29a11.23,11.23,0,0,1-18.94,0H215.1a10.85,10.85,0,0,1-9.41,5.19,11,11,0,0,1-9.49-5.19h-3.29a11,11,0,0,1-9.48,5.19,10.89,10.89,0,0,1-9.47-5.19h-3.28a11,11,0,0,1-9.5,5.19,11.25,11.25,0,0,1-8.33-3.6L150,232.91a15.28,15.28,0,0,0,22.32.05,15.24,15.24,0,0,0,22.24,0,15.15,15.15,0,0,0,11.17,4.82A14.93,14.93,0,0,0,216.8,233a15.27,15.27,0,0,0,22.27,0,15,15,0,0,0,11.07,4.82A14.81,14.81,0,0,0,262,232.16ZM138.75,363.88l-1.2-.93-2.44,2.94,1,.79a3.44,3.44,0,0,0,2,.92,1.88,1.88,0,0,0,1.81-2.05,2.66,2.66,0,0,0-1.25-1.67Zm215-263.61h.05v52.52H342.33V279.55c0,71.61-60.53,129.88-134.89,129.88q-3.47,0-6.89-.16h0c-1.12-.06-2.23-.14-3.34-.21-69.56-5.12-124.52-61.24-124.52-129.5V152.79H61.11V100.27h69.45l0,10h47.05v-10l47.23,0h11.81v10h45.84v-10h25.94v0h4.85v0H336v0h4.85v0ZM313.58,211.82v5.69l17.48,6.34v-5.32l-2.88-.81v-5.93l2.88-.85v-5.47l-17.48,6.35Zm17.48,21.6H313.58v5.23h17.48v-5.23ZM313.58,256v8.68h17.48v-5.24H324V259a2.18,2.18,0,0,1,.4-1.27,3.86,3.86,0,0,1,1.34-.95l5.35-2.78v-5.9L326,250.64a8.41,8.41,0,0,0-1.09.74,6.4,6.4,0,0,0-.91.83,4.79,4.79,0,0,0-.65,1.36,6.75,6.75,0,0,0-.69-1.83,5.24,5.24,0,0,0-7.05-1.46,3.9,3.9,0,0,0-1.6,2.05,12.4,12.4,0,0,0-.43,3.7Zm-29.1-134-10,22.3H280l2.16-5.09h10.22l2.16,5.09h5.6L289.9,122Zm-38.33,0v22.3h4.75V129.69l10.34,14.62h5.12V122h-4.77V137L251.12,122Zm-23.68,0-9.95,22.3H218l2.11-5.09h10.2l2.2,5.09h5.58L227.85,122Zm-38.37,0h0v11.88a22.85,22.85,0,0,0,.54,5.66,5.62,5.62,0,0,0,1.43,2.49A8.86,8.86,0,0,0,189,144a15.61,15.61,0,0,0,5.55.74,14.78,14.78,0,0,0,4.93-.68,7.36,7.36,0,0,0,2.93-1.81,6.41,6.41,0,0,0,1.58-2.79,27.92,27.92,0,0,0,.43-5.69V122h-5.19v12.33a22.27,22.27,0,0,1-.22,3.8,2.94,2.94,0,0,1-1.27,1.93,7.25,7.25,0,0,1-6.7,0,3.64,3.64,0,0,1-1.56-2.19,26.8,26.8,0,0,1-.19-3.72V122Zm-22.18,14.9-4.9.49a7.25,7.25,0,0,0,2,5.43,8.42,8.42,0,0,0,5.82,1.87,9.25,9.25,0,0,0,5.12-1.2,6.07,6.07,0,0,0,2.77-3.11,12.73,12.73,0,0,0,.53-4.26V122h-5.15v14.42a6.56,6.56,0,0,1-.68,3.58,3,3,0,0,1-2.42.85,2.78,2.78,0,0,1-2.52-1.21,5.93,5.93,0,0,1-.6-2.74ZM143.63,122v22.3h5.15V122ZM115,122v3.8h7.47v18.5h5.16v-18.5h7.51V122Zm-2.88,29H303V279.54c-.51,51.48-42.09,93.11-95.47,94.75-31.82.71-58.48-12.76-75.25-34.36a97,97,0,0,1-20.14-60.39V151Zm-9.79,140.17-.1-2.65-2.79-1.6.1,2.09,2.79,2.16ZM83.79,216.73v5.46l17.48-6.34v-5.69l-17.48-6.35v5.33l2.88.82v5.92l-2.88.85Zm-.66,28.1A19.86,19.86,0,0,0,81.82,247l3,1.45c.23-.5.43-.91.6-1.21s.41-.63.88-1.27a9.76,9.76,0,0,0,6.21,1.83c2.9,0,5.12-.76,6.68-2.29a8.68,8.68,0,0,0,2.33-6.49,8.49,8.49,0,0,0-2.38-6.42,9.22,9.22,0,0,0-6.7-2.3,9,9,0,0,0-6.91,2.63A8.61,8.61,0,0,0,83.49,239a10.77,10.77,0,0,0,.77,4.34c-.25.27-.62.78-1.13,1.49ZM83.67,264a24.42,24.42,0,0,0-.19,2.68,10.15,10.15,0,0,0,.59,3.65,5.87,5.87,0,0,0,1.45,2.09,6.28,6.28,0,0,0,2.41,1.46,8.77,8.77,0,0,0,2.92.48h10.41v-5.21H90.6a3.07,3.07,0,0,1-2.24-.76,2.81,2.81,0,0,1-.8-2.12,2.77,2.77,0,0,1,.81-2.12,3.09,3.09,0,0,1,2.23-.76h10.66v-5.2H90.85a10.49,10.49,0,0,0-3,.48,5.59,5.59,0,0,0-2,1.11,6.16,6.16,0,0,0-1.51,1.79,7,7,0,0,0-.7,2.43Zm.2,22.24.34,5.21,14.34-.86-.34-5.21-14.34.86ZM96.3,334.14l3.64-1.46-3.6-8.3,3.18-1.29,3.24,7.49,3.29-1.33-3.23-7.49,2.56-1,3.5,8.08,3.44-1.4-5.59-12.89L90.61,321l5.69,13.12Zm15.64,23.12,2.67,3.41,14-10.17L124.28,345l-10.13,4.09,6.84-8.29-4.28-5.48-13.95,10.17,2.67,3.41,10.63-7.76-8.59,10.38,2.41,3.09,12.69-5.13-10.63,7.76ZM143.76,370a4.89,4.89,0,0,0,1.34-3.88,6,6,0,0,0-2.55-3.71l-7-5.42-10.93,13.17,4.22,3.28,4.06-4.89,2.31,1.79a7,7,0,0,0,4.72,1.81,5.43,5.43,0,0,0,3.83-2.15ZM152,388l8.18-14.91-4.78-2.44-8.19,14.91L152,388Zm30.44-3.16,1.09-3.46-13.84-4.07-5.09,16.15,14.09,4.15,1.16-3.67-8.92-2.62,1-3.18,8,2.36,1-3.29-8-2.36.82-2.56,8.66,2.55Zm25.06,2.53.24-3.37-15.24-1-.26,3.6,8.75.58-10.39,9.11-.25,3.49,16.54,1.1.26-3.61L197,396.59l10.49-9.19Zm23.66,11.11,5.58-.88L227.48,382l-5.82.91L218,400.56l5.44-.84.39-2.89,6-.94,1.32,2.62Zm33.16-11.06,11.93-6.76-2.17-3.59-7.27,4.11-6.66-11-4.66,2.64,8.83,14.57ZM295,365.63l-2.6-1.45-4.47,4.06,1.35,2.59-4,3.65-7.19-16.64,4.29-3.89,16.75,7.95L295,365.63Zm21.15-27.05,2.33-4.74-5.86-2.69,1.27-2.57c1.64-3.35,1.3-6.3-2.31-8-3.34-1.54-5.79-.28-7.36,2.89l-3.85,7.83,15.78,7.25Zm12.62-33.89,1.29-5.32-18.52,2.36-1.33,5.54,15.53,10,1.26-5.19-2.62-1.43,1.39-5.78,3-.18ZM331,285.41l.08-5.21L317.94,280l.09-5.33-4.32-.06-.26,15.85,4.31.07.09-5.32,13.16.21Zm-6.61-68.84v-3.7l-6.28,1.87,6.28,1.83ZM90.46,214.8l6.28-1.87-6.28-1.84v3.71ZM88.88,238l2,.81a4.72,4.72,0,0,1-.32,1.08,12.14,12.14,0,0,1-1,1.5q-.2.26-.39.57c1.64.89,5.76.9,7.23-.33a3.44,3.44,0,0,0,0-5.14,5.56,5.56,0,0,0-3.62-1,6.47,6.47,0,0,0-4,.94,3.18,3.18,0,0,0-1.16,2.59,4,4,0,0,0,.11,1A6.21,6.21,0,0,0,88.88,238ZM230,15.34l-26,19c14.69,11.83,35-4.3,26.14-19.12l-.16.12ZM215.43,36.53a14.22,14.22,0,0,1-8-2.42l4.47-3.33a8.36,8.36,0,0,0,5.19,1.84,8,8,0,0,0,8.11-7.8,7.2,7.2,0,0,0-.79-3.2L229,18.31a13.32,13.32,0,0,1,.78,4.4c0,7.6-6.48,13.82-14.36,13.82ZM319.88,255.05a1.82,1.82,0,0,0-2.32.19,3.07,3.07,0,0,0-.45,1.95v2.28h3.56v-2.2a7.07,7.07,0,0,0-.25-1.38,1.4,1.4,0,0,0-.54-.84ZM357.27,1.36,312.78,19,284.92,63.66,260.6,78.21l-10-32.76c3.31-1.77,5-.59,7.37,0,3.62.6,12.76,1.91,15.7-.77,1.47-1.34.85-3.18-.75-4-2.85-1.45-7.92.87-11.67-1.31a16.6,16.6,0,0,0,6.07-8.46A5.13,5.13,0,0,1,268.47,29a7.58,7.58,0,0,1,1,4,9.12,9.12,0,0,0,.06-5.1,2.57,2.57,0,0,0,.43-3.19,5.37,5.37,0,0,0-2.52-2.19c-1.5-.38-2.63,1-5.84,2.91A4.67,4.67,0,0,0,256,28.21c-1.1,2.28-1.49,6.43-6.39,8.4l-1.52.67c-3.24-10.63-6.45-21.15-9.68-31.63l1.08-.56.65-1.5C239.86,2.21,237.5.64,235,.13c-2.71-.46-6,.38-10,1.58a260.76,260.76,0,0,0-41,16.33c-7.5-.82-19.79-2.08-26.95-1.1-2.12.27-6.52,5.06-6.8,6.77-1.61,1.95-3.34,3.66-4.91,5.71S146.77,39,150,46c-11.26-.69-21.17,0-29,1.91L100.67,19,56.25,1.36,0,38V312.76c25.52-16,51.38-38.38,68.3-63.16v-8.89c-1.57,2.59-4.47,7.94-6.95,9.45L50,243.29V208l11.37,6.86,6.95-4.19v-5.53l-6.95,4.19L50,202.5V167.25l11.37,6.86,6.95-4.19v-5.53l-6.95,4.19L50,161.71v-8.62a82,82,0,0,0,6.79-8v-6.3c-3,4.09-7,10.22-12.08,14.05-7.84,5.87-21.6,5.29-30.68-6.43,31.54,11.18,31.1-16.47,42.76-23v-4.14A17.58,17.58,0,0,0,50,124.14V85.68l11.37,6.86,11.38-6.86V96.06h4.85V65.32l11.31,6.82,11.32-6.82V96.06h4.87V75.13a45.46,45.46,0,0,0,4.14,6.44c2.68,3.53,3.7,6.28,3.49,9.49a15.06,15.06,0,0,1-1.33,5h4.14a16.93,16.93,0,0,0,1.07-4.78c.33-5.18-2-8.94-4.23-12-6.23-8.17-7.78-14.83-4.63-19.76,6-9.41,29.19-12.67,57.8-8.12a19.38,19.38,0,0,0,0,6.41c-7.9-.59-38.42-2.29-45.38,6.08-5.39,6.49-1.1,13.5,2.35,19.12,2,3.29,3.92,6.39,3.76,8.79a20.53,20.53,0,0,1-.72,4.19h4a18.31,18.31,0,0,0,.59-4.83l15,9.3.09-.13-1.13,5.66h5.58c1.86-9.68,6-31.57,7.82-44.86l1.94.08c-1.2,8.81-5.75,32-8.17,44.79H153l.27-1.45,1.34,1.45h2.27l-3.23-3.54,1.28-7.13,5.28,6.25,6.24-5.09-1.17,6.67-3.52,2.84H167l-.37-.67,1.47-8.26,3.07,5.91,1.56-1.65V98.85l-1.14,1.24-3-5.79,1.42-8.22,3,6.33,5.25-6-1.4,7.94L175.33,96h3l.37-2.1,2.7,2.1h2.71l-5.07-4,1.26-7.18,8.63,7.42,9.74-6.92.44,6.86L193.31,96h3.07l2.84-1.86.12,1.86h3.13l-1.53-2.12-.5-7.79,4,5.74,3.83-6.07.48,8.09L207.38,96H216l-5.57-3.38-.39-6.38,11.29,7.32,9.07-8.19,1.73,6.91L227.46,96h2.64l2.42-2,.5,2h1.81l-.67-2.76L239.33,96l1.6.86,1.46.76.18-1.11,1.83-8L247.23,95l-2,9.46-4.25-.91v1.85l1.3.64h4.24l1.91-8.44,1.51,3.39,0,0,.06,0,2.23,5H254l-1.09-2.44,2.91,2.44h7.71l-3.09-2.72-4.19-11.07L261.43,96l.69-4.47,3.21,10.62-.68,3.85h4.66l-.94-5.49,30.91-17.8,9.18-14.24V96h4.85V65.28l11.32,6.82,11.31-6.82V96h4.85V85.65l11.38,6.86,11.37-6.86V120.9L358,124.26v5.53l5.55-3.35v35.25l-11.37,6.87-5.64-3.41v5.53l5.64,3.41,11.37-6.87v35.26l-11.37,6.87-5.64-3.42v5.53l5.64,3.41L363.54,208v35.26l-11.37,6.86-1.15-.69c-1.56-2.19-3.06-4.41-4.49-6.68v8.68c24.08,34.18,61.34,57.75,63.25,58.94l3.75,2.34V38L357.27,1.36ZM50,248.84l9,5.41C56,258,53,261.53,50,264.94v-16.1ZM18.2,294.19c-5.61,4.39-10.33,7.73-13.37,9.81V245.2l13.37-8.43v57.42Zm0-63L4.83,239.6V192.29l13.37-8.43v47.31Zm4.85-73c8,3.79,18.66,1.2,22.05-1.77v25.88L33.94,189l-10.89-6.56V158.14Zm0,29.81,10.89,6.57,11.16-6.73v35.26l-11.16,6.72-10.89-6.56V188Zm0,40.79,10.89,6.57,11.16-6.73v35.26l-11.16,6.72L23.05,264V228.74Zm0,40.79,10.89,6.57,11.16-6.73v.75a258.24,258.24,0,0,1-22,20.19V269.53ZM11.73,141.38a2,2,0,0,0-2,.11,1.86,1.86,0,0,0-.82,1.79A19.25,19.25,0,0,0,18.21,156v22.22L4.84,186.68v-47.3L18.21,131v12.81c-2.13-.64-4.76-1.09-6.48-2.39Zm6.47-16L4.83,133.78V86.48L18.2,78.06v47.3Zm26.9,3.85c-.52,1.75-6.13,17.2-22,15.48V106.36l10.89,6.57,11.16-6.74v23Zm0-28.54-11.16,6.72-10.89-6.56V65.57l10.89,6.57L45.1,65.42v35.25Zm0-40.79L33.94,66.61,23.05,60.05V52.22L45.1,35.45V59.88ZM72.7,80.15,61.33,87,50,80.15V44.48l11.37,6.87L72.7,44.48V80.15Zm0-41.2L61.33,45.81,50,39V31.74l8-6.11,14.71,6.5V39ZM88.87,66.61,77.55,59.78V34.27l7.53,3.34,13.7,23-9.91,6Zm14.64-7.43L88.51,34,57.3,20.17,18.2,49.93V72.45L4.83,80.87V40.52l52-33.88L97.46,22.76l18.68,26.57A28.43,28.43,0,0,0,107.61,54a14.72,14.72,0,0,0-4.1,5.2Zm42.6,36.43L127.57,84.08c-.55-1-1.15-1.93-1.75-2.91-2.56-4.17-4.41-7.53-4.37-10.52,0-3.31,2.18-5.34,5-6.57L131.36,71,149,81.39l-2.85,14.22ZM150,76.47l-15.16-8.93-3.44-4.91c6-1.26,14.13-1.6,21.42-1.54L150,76.47ZM253.36,63.09l3.17,10.36h0l-.77,5.63-5-3.16-.06.08-2-5.56,0-.14h-.08l-2-5.68,6,3.21.59-4.74ZM234,61l.46-.32,6.95,4.65,1.44-6.83,4.13,12-1,6.21-7.5-5.7L234,61Zm1.15,6.85-1.44,6.5-5.09-3.44-1.5-6.14A41,41,0,0,0,232.54,62l2.62,5.92Zm.78-8.22a52.86,52.86,0,0,0,5.62-4.9l-1.32,7.77-4.3-2.87Zm16.13-.54-.72,6L246,62.3l-3.06-8.92c.46-.48.93-1,1.39-1.52l4.21,1.85.51-4.87,3.06,10.28Zm-6.63-8.59c.63-.75,1.26-1.53,1.88-2.34l-.31,3-1.57-.68ZM244.26,33.4l1.49,4.88c-.7.32-1.35.65-2.06,1l.57-5.86Zm-1.18-3.94L242,38.55l-5.47-3.78-.34-1a29.49,29.49,0,0,0,4.18-13.18l2.73,8.82Zm-1.54,10.83c-.88.42-1.74.83-2.71,1.31l-1.39-4.17,4.1,2.86ZM169.81,64.1a19.3,19.3,0,0,1-.55-14.46c2.28-6.36,9.68-8.93,15.34-10.56.81-.25,1.5.46,2.91,2.13,1.67,2,3.72,4.41,7.33,4.41a26.29,26.29,0,0,0,6.95-1c2.41-.58,7.31-2.14,11.52-2.14,7.22,0,10,3.19,11.85,7.22-5.08,3.68-12.09,8.66-21.31,4.16-7.35-3.5-15.12-4.23-21.31-2-5.45,1.94-10.19,7.07-12.73,12.2ZM182,61.69l-4.77,6.09-2.46-6.17a64.44,64.44,0,0,1,7.23.08Zm50.79-48.2a18,18,0,0,1,1.6,7.52,18.86,18.86,0,0,1-6,13.6,20.39,20.39,0,0,1-26.59,1.49c-3,4.86-7,4.37-8.67,2.27-1.41-1.76-1.29-4.61,3.32-6.79l36.83-19.64-.47.88v.67Zm-9.56,30.74,7.53,1.91c-1.27.73-2.53,1.5-3.67,2.26a11,11,0,0,0-3.86-4.17Zm2.16-1.18a23.79,23.79,0,0,0,8.81-6.49l-2.07,8.2-6.74-1.71Zm10.3-5.41,1.65,4.8c-1.1.57-2.23,1.18-3.3,1.78l1.65-6.58Zm3.13-22a37.87,37.87,0,0,1-1,9.77c-2,8.52-8.29,15.93-17.2,17.51a20.5,20.5,0,0,0-3.5-1.09c10.68-1.36,19-10.15,19-20.79a20.55,20.55,0,0,0-1.62-7.83l2.26-4.09,2,6.52ZM232.25,3.21a5.51,5.51,0,0,1,4.59,1.35c-13.46,6.91-28.41,14-42.62,21.68,8.49-5.93,28.45-20.84,38-23Zm-24.38,7.64-7.53,5.44-4.62,3.34v0l-7.35,5.28,5.41-8.23c4.68-2,9.32-4,14.09-5.86Zm-24.76,10-2.45,5.7-2.52-6.2c1.65.12,3.34.28,5,.5Zm-6.89-.67L179.76,29l.82,2,.82-1.91,3.81-8.25c1.84-.93,3.73-1.86,5.57-2.7l-6.47,9.79,1.23,1.13L213.85,8.64c1.82-.68,3.6-1.29,5.33-1.89L188.66,28.67l.61,1.83c-.68.64-4,1.87-6.32,2.76-.76-.39-2.38-1.22-3.84-2.15l-.78-.61.55-.55L169.2,19.67c2.34.14,4.73.29,7,.5Zm-17.95-.32a61.46,61.46,0,0,1,8.5-.31L168.15,21l7,7.26L154,23.86c1-1.44,3.43-3.84,4.26-4Zm-5.34,6.06c3.26.67,18.83,3.93,23.09,4.8a3.3,3.3,0,0,0,1.87,2.3,39.7,39.7,0,0,0,5,2.68A21.36,21.36,0,0,0,192,30.6l-.91-1.4c7-3.29,35.73-17.84,45-22.45L236.49,8,195.57,30.12c-1,.52-4.4,2.39-5,5a5.18,5.18,0,0,0,1.32,5c2.88,2.75,8,1.65,9.8-2a22.24,22.24,0,0,0,6.84,3.12,33.78,33.78,0,0,0-7.37,1.23,26.67,26.67,0,0,1-6.35,1c-2.57,0-4.05-1.86-5.55-3.62S186.34,36.24,184,37c-1.64.45-3.26.93-4.88,1.39A4.87,4.87,0,0,0,179,36.5a4.23,4.23,0,0,0-3.13-3.19c-3.54-.79-19.48-4.56-24.41-5.77.63-.68,1.17-1.22,1.51-1.63Zm22.48,9c1.72.35,2.44,2.69,1.62,4.12a20.2,20.2,0,0,0-2.18.87c-.32.16-.3.22-.61.08l-6.09-2.5L153,31.2l-.91-.37-.71-1.55c8,1.86,16,3.92,24.08,5.67ZM170,40c-2.39,2.45-8,4-12.11,2.4-3.58-1.4-5.56-4.82-5.79-9.92l2.81,1.2c0,.58.07,5.06,4.07,6.26A5.65,5.65,0,0,0,165.25,38L170,40ZM153.5,46.2c-3.37-7.24-5.8-13.69-5.25-15l1.32-1.62.72,1.4c-.09,8.35,3.71,11.64,7,12.89A14.42,14.42,0,0,0,171,41.38l.76.2a14.35,14.35,0,0,0-2.07,1.64,21.89,21.89,0,0,0-3.26,4.66v-.09q-6.7-1.07-12.94-1.59Zm7.59,15.15c2,.1,3.86.22,5.34.35a32,32,0,0,0,3,6.51l-4.7,3.91-4.29-6.86s.43-2.07.69-3.91ZM166.84,94l-6.45,5.3-5.14-6.09,1.34-7,4.93,6.43L168,87.28,166.84,94Zm1.63-9.24-6.62,5.48L157,83.9,158.27,77l4.6,6.69,6.85-5.59-1.25,6.67Zm-5.22-3.58-4.61-6.58,1.25-6.83,4.35,6.92,7.08-5.84-1.21,6.66-6.86,5.67Zm15.54,2-5.38,6.17-2.87-6.15L172,75.12l2.86,6.69,5.34-6.48-1.41,7.83Zm-3.42-4.61-2.78-6.36h-.07l1.41-8.08,2.75,7.06,5.49-6.91-1.36,7.64-5.44,6.64ZM189,90.18,180.6,83l1.26-7.12,7.64,7.39,8.57-6.58.41,6.79L189,90.18Zm1.21-16,7.35-6.26.5,6.7L189.64,81l-7.43-7.15,1.21-7,6.74,7.34Zm-5.83-12.3a73.2,73.2,0,0,1,13,2.38l.12,1.58-7.12,6-6.36-7,.38-3Zm14.76,2.91c1.4,2.12,3.44,5.85,4.16,6.91l2-4.81c.61.16,1.23.31,1.87.43l.33,4.62-3.75,6-4.15-6.08-.44-7.11Zm2,.65c.81.29,1.9.82,2.7,1.11L203,68.64l-1.89-3.22Zm3.21,23.4-4.15-5.91-.46-7.71,4.06,5.93,3.84-6.2.45,8-3.74,5.91Zm.64-26a77,77,0,0,0-27.81-5A17.5,17.5,0,0,1,183.34,54c5.6-2.05,12.66-1.37,19.44,1.87,10.6,5.11,18.53-.61,23.77-4.38a105.5,105.5,0,0,1,9.32-5.7,144.92,144.92,0,0,1,14.62-7.07c5.72-2.35,6.35-6.77,7.27-9.4,1.19-3.11,4.53-1.64,4.53-1.64,1-.52,4.4-3.65,4.89-3.52,0,0,2.14.88,1.54,2.2-.44.95-3.4,3.26-3.63,3.93a14.47,14.47,0,0,1-4.25,6.55c-3.47,2.49-.64,4.58,0,4.93a9.53,9.53,0,0,0,3.27.91c2.33.22,5.42-.73,7.4-.34.53.11,1,.31,1,.69s-.39.62-1.26.83a27.33,27.33,0,0,1-11-.08c-4.38-1.11-9.15-2.75-16.4,4-1.19,1.12-2.39,2.33-3.67,3.65s-2.46,2.5-3.76,3.73c-8.82,7.92-23.93,10.62-31.45,7.69Zm20.69,3.22-7.28,8.43-8.95-6.84c1,.1,2.06.17,3.14.17a36.57,36.57,0,0,0,12.93-2.34l.16.58ZM209,69.44l9.61,7.32,7.54-8.69,1.61,6.72-8,8.16-10.38-7.23L209,69.44ZM221.11,91.5l-11.19-7.3-.41-6.32L220,85.18l8.29-8.5,1.64,6.84-8.82,8Zm8.11-18.13,5.66,3.82,1.43-6.7,2.85,6.41-1.75,7.83L231.05,81l-1.83-7.62Zm11.89,21.76-7.56-4-1.91-7.79,6.93,4.13,1.77-7.87L243.17,86l-2.06,9.18Zm3.94-9.28L240,74.56l7.19,5.21,1-5.75,4,11.79L251.65,91l-6.57-5.13ZM257.43,101l-3.89-11.33-.45,4.55L246.43,89l4.92,11.07,6,5,.1-4.1Zm2.63-8-4.79-3.6L254,85.6v0l-2.45-7.12L257.07,82l.65-4.61,3.2,10.49L260.06,93ZM363.55,264.93c-3.08-3.41-6.09-7-9-10.69l9-5.42v16.11ZM335.94,59.78l-11.31,6.83-10.75-6.49,14.5-22.49,7.56-3.34V59.78Zm27.61,20.37L352.18,87l-11.37-6.86V44.48l11.37,6.87,11.37-6.87V80.15Zm0-41.2-11.37,6.86L340.81,39V32.14l14.71-6.5,8,6.11V39Zm4.86,231.17v-.75l11.16,6.73,10.89-6.57v20.78a267.13,267.13,0,0,1-22-20.19Zm22-6.13-10.89,6.57-11.16-6.72V228.57l11.16,6.72,10.89-6.56V264Zm0-40.78-10.89,6.56-11.16-6.72V187.78l11.16,6.74L390.45,188v35.26Zm0-40.79L379.56,189l-11.16-6.73V147l11.16,6.74,10.89-6.57v35.26Zm0-40.79-10.89,6.56-11.16-6.73V106.2l11.16,6.74,10.89-6.57v35.26Zm0-40.79-10.89,6.56-11.16-6.72V65.43l11.16,6.72,10.89-6.57v35.26ZM379.56,66.61,368.4,59.88V35.44l22,16.77v7.84l-10.87,6.56ZM408.68,304c-3.05-2.08-7.75-5.42-13.37-9.81V236.77l13.37,8.42V304Zm0-64.4-13.37-8.43v-47.3l13.37,8.44V239.6Zm0-52.91-13.37-8.42V131l13.37,8.42v47.3Zm0-52.9-13.37-8.42V78.06l13.37,8.42v47.31Zm0-52.91-13.37-8.42V49.94L356.19,20.18,325,34,295.79,79.33,268.11,95.25,264.46,81.4l24-14.37L316.1,22.72,356.7,6.65l52,33.88V80.88ZM309.44,325.27a2,2,0,0,0-1.5-.1c-1,.31-1.61,2-2.06,2.9l3.52,1.62c.44-.89,1.31-2.34,1-3.29a1.74,1.74,0,0,0-1-1.13ZM225.11,127.21l-3.46,8.21h7l-3.54-8.21Zm62,0-3.44,8.21h6.94l-3.5-8.21Zm-26.39-95a1.87,1.87,0,1,1,1.94-1.87,1.91,1.91,0,0,1-1.94,1.87Zm61,272.88-6.56.44,5.69,3.17.87-3.61Zm-97.44,87.95,3.78-.59-2.9-5.69Z"/><text class="cls-2" transform="translate(471.6 130.19)">I<tspan class="cls-3" x="44.18" y="0">M</tspan><tspan class="cls-4" x="157.71" y="0">P</tspan><tspan class="cls-5" x="242.46" y="0">L</tspan><tspan class="cls-6" x="316.83" y="0">AN</tspan></text><text class="cls-7" transform="translate(471.6 212.87)">Institu<tspan class="cls-8" x="204.11" y="0">t</tspan><tspan class="cls-9" x="228.99" y="0">o Met</tspan><tspan class="cls-10" x="406.99" y="0">r</tspan><tspan class="cls-9" x="431.94" y="0">opolita</tspan><tspan class="cls-11" x="650.27" y="0">n</tspan><tspan class="cls-12" x="692.17" y="0">o</tspan></text><text class="cls-13" transform="translate(471.6 283.64)">de Pla<tspan class="cls-14" x="174.91" y="0">n</tspan><tspan class="cls-15" x="213.31" y="0">e</tspan><tspan class="cls-14" x="246.48" y="0">a</tspan><tspan class="cls-16" x="279.82" y="0">ción de </tspan><tspan class="cls-17" x="500.24" y="0">T</tspan><tspan class="cls-18" x="531.71" y="0">ijuana</tspan></text></g></g></svg>