<svg xmlns="http://www.w3.org/2000/svg" viewBox="0 0 1366 434.01"><defs><style>.cls-1,.cls-2{fill:#ffffff;}.cls-1,.cls-3{fill-rule:evenodd;}.cls-3{fill:#ffffff;}</style></defs><g id="Layer_2" data-name="Layer 2"><g id="XXIV_Logo" data-name="XXIV Logo"><polygon class="cls-1" points="527.02 159.7 492.78 159.7 492.78 129.13 600.68 129.13 600.68 159.7 566.44 159.7 566.44 246.05 527.02 246.05 527.02 159.7"/><rect class="cls-2" x="623.4" y="129.13" width="39.42" height="116.92"/><path class="cls-1" d="M699.14,244.3a45.49,45.49,0,0,1-18.29-13l21.22-25a38.21,38.21,0,0,0,9.18,8.68,17.25,17.25,0,0,0,9.35,2.84q6.18,0,9.44-3.67t3.26-10.86V158.86H693.55V129.13h78.67V201q0,23.9-12.28,35.83t-36,11.95A66.52,66.52,0,0,1,699.14,244.3Z"/><path class="cls-1" d="M816.81,234.19q-15-14.52-15-40.75V129.13H841.2v63.14q0,12.87,4.59,18.71t13.28,5.84q8.68,0,13.28-5.84t4.6-18.71V129.13h38.74v64.31q0,26.22-15,40.75t-41.92,14.54Q831.84,248.73,816.81,234.19Z"/><path class="cls-1" d="M1012.57,197.28l-11.36-29.4-11.36,29.4Zm10.86,28.4H979l-7.86,20.37H931.06l51.11-116.92h38.75L1072,246.05h-40.75Z"/><polygon class="cls-1" points="1206.15 129.13 1206.15 246.05 1173.75 246.05 1129.32 192.94 1129.32 246.05 1090.91 246.05 1090.91 129.13 1123.31 129.13 1167.74 182.25 1167.74 129.13 1206.15 129.13"/><path class="cls-1" d="M1306.54,197.28l-11.36-29.4-11.36,29.4Zm10.85,28.4H1273l-7.85,20.37H1225l51.11-116.92h38.75L1366,246.05h-40.76Z"/><path class="cls-1" d="M306.33,384l-6.05-3.32,3.09,6,3-2.7Zm-49.62-25a31.51,31.51,0,0,1,.74,8.9c-.14,2.3-.65,4.72-.85,7.09-.41.25-.81.48-1.21.7-22,12.38-48.76,11.79-71.54,2.38-.46-.19-.23-.08-.68-.28a49.09,49.09,0,0,1-1.7-10.47,8,8,0,0,1-5.82,4.28c-3.85.64-7.59-1.58-9.54-5.33-4.18,1.32-9.47-2.33-10.18-6.4a10.53,10.53,0,0,1-7.51-8.52,7.56,7.56,0,0,1-.2-1.95,7.81,7.81,0,0,1-3.61-2,9.31,9.31,0,0,1-1.86-2.41,11.33,11.33,0,0,1-1.24-4.81l-.1-1.71h-4.74l-2.44-3.7.41-30v-2.05l.92-62.84.2-.41a5.09,5.09,0,0,1,1.41-.69,9.64,9.64,0,0,1,4.19-6.8c4.82-3.41,11.12-3.91,17.31-2.27a13.63,13.63,0,0,1,13.78,1.76,11.3,11.3,0,0,1,5.71-1.75,7.38,7.38,0,0,1,5.66,2.71,8.72,8.72,0,0,1,4.14-.47c2.36.39,3.3,1.77,4.67,3.45a9.82,9.82,0,0,1-4.9,2.57,14.36,14.36,0,0,1-8.77-1.57c-.11,0-3.29,1.86-5.88,1.46a10,10,0,0,1-4.54-1.75c-2.38,1.6-4.36,2.68-7.31,2.59a17,17,0,0,1-9.88-3.61c-1.92,1.49-4,3.13-4.29,4.1l.67.41v.3l.77,58.35c6.24-1,12.22-.26,16.62,3,.45-5.54,1.69-8.56,1.82-8.62l4.26,2a25.88,25.88,0,0,0-4.14,6.44c11.1-3.2,17,.57,21.11,7.17V300l2,1.1,12.49,6.84V300l14.47,8.33V300l10.78,6.75h57.53c0-.24,0-.48,0-.71l3,.41a9.21,9.21,0,0,1-3-7.17l3,.41c-1.26-1.2-2.61-2.43-3-7.18l3,.41c-2.37-2.59-2.62-3.89-3-7.17l3,.39c-2.37-2.39-2.7-5.37-3-7.21l3,.46c-1.89-1.74-2.54-5.38-2.48-7.86V238l5,3.55v-4.81l3.46,2.48v-3.4l2.36-2.37,2,2.19v3.77l3.63-2.53V241l4.91-3.08v33.85c.07,2.81-1.32,5.33-2.5,7.67l3-.39a10.58,10.58,0,0,1-3,7.17l3-.41c-.32,3-1.34,5.67-3,7.17l3-.41c-.32,3.57-1,5.46-3,7.19l3-.42a9.12,9.12,0,0,1-3,7.17l3-.41a9,9,0,0,1-3,7.18l3-.42c0,3.2-1.56,6.49-3,7.17l3-.4c-.69,5.75-3.06,9.77-9,11.69,0,3.12,0,5.3-.06,7.16H292.7a13.91,13.91,0,0,1-.7,10.31,1.38,1.38,0,0,1-.86.72,1.64,1.64,0,0,1-1.45-.25c-.56,6.31-5.84,11-6.07,11.22l-1,.9c-.7-.65-1.4-1.3-2.05-2a20.22,20.22,0,0,1-8,6.62c-.37-.74-.78-1.51-1.1-2.27a21.29,21.29,0,0,1-9.4,4,26.58,26.58,0,0,1-2.93-9.39c-.77.24-1.57.45-2.35.67Zm-.89-3.12a22.39,22.39,0,0,1,1-7.33l-1.55-.12-1.38-.13.06-1.35a20.77,20.77,0,0,1,2.46-8.43H230.32a30,30,0,0,1,.92,8.51c0,6,.31,9.4,5.51,11a5.32,5.32,0,0,0,6-2.05,7.79,7.79,0,0,0,.12-9.15,2.1,2.1,0,0,1,.09-2.59,2.19,2.19,0,0,1,2.57-.63c4.61,1.9,8.28,6.47,10.29,12.24ZM228,296.78h3V281.45h-3v15.33Zm10.26-19.93c3.8,0,7.15-2.06,7.67-5.59h-3.23c-.2,2.12-2,3.2-4,3.21-3.09,0-5.23-2.8-5.23-5.68s1.82-5.64,4.82-5.75a4,4,0,0,1,4.24,3h3.22a7.38,7.38,0,0,0-7.47-5.4,8.06,8.06,0,0,0-8,7.88,8.19,8.19,0,0,0,8,8.32Zm-1.15,16.49h6.63l1.53,3.46h3.15l-6.76-15.32H239l-6.32,15.32h3l1.44-3.46Zm3.19-7.89L238.05,291h4.66l-2.4-5.59Zm-17-24.48H211.06v2.34h4.6v13h3.09v-13h4.55V261ZM248,276.3h3.09V261H248V276.3Zm-29.74,21c3.82,0,7.17-2.07,7.72-5.58H222.7c-.22,2.15-1.95,3.16-4,3.19-3.1,0-5.17-2.76-5.22-5.67s1.83-5.63,4.85-5.73a3.93,3.93,0,0,1,4.21,3h3.21a7.34,7.34,0,0,0-7.42-5.39,8.09,8.09,0,0,0-.1,16.18Zm6.9-21h3.07V261h-3.07V276.3Zm-25.32,20.94c5,.1,9-3.72,8.85-8.36a8.65,8.65,0,1,0-8.85,8.36Zm.22-13.77c-3.07,0-5.17,2.78-5.28,5.56a5.29,5.29,0,1,0,10.53,0,5.46,5.46,0,0,0-5.25-5.56ZM183.92,225.2c-3-2.36-6-4.69-9-7l14.23-1.81c1,1.27,8.08,7.5,8.08,7.92v19.07c2.9-.11,5.81-1.31,8.61-5.79h5.05l.41.61a10.27,10.27,0,0,0,8.88,4.85c4.16,0,7.1-2,9.2-5.46h5c2.15,3.45,5,5.46,9.23,5.46a10,10,0,0,0,4.79-1V224.64a20.66,20.66,0,0,0,4.74-8.95l9.94,1.24-9,7c18.11,1,36.45,1.12,54.6,1.6l-23.25-8.65c2-1.56,4.08-3.06,6.14-4.57-13-2.15-26-4.5-39-6.65,0-.31,5.27-10.49,5.72-11.63l.07-.12,19.66-8.79-6.94,19.44,40.09-33-18.65,5.58,3.44-9.65-3.72,1.07-39.65,12c-4-2.83-8.6-6.38-13.65-5.14l-3-1.89a9.53,9.53,0,0,0-8.92-1l-3-1.9c-5.71-3.62-10.6-.57-12.75,1.27-1.26-.74-2.6-1.47-3.94-2.18a8.63,8.63,0,0,0-8.2.27c-3.75,2-6.38,6.46-7.52,12.41L142,167.56l3.43,9.7L128.61,173,167,204.61l-7-19.44,25.89,11.55a28.56,28.56,0,0,0-.52,10.31l-38.86,6.58c2,1.51,4.08,3,6.11,4.49l-23,8.68,54.36-1.58ZM239.18,227c6.91-3.4,10.29-6.55,11.23-12.56-6.34-1-16-2.3-16.6-2.06-2.55,1-5.86,1.12-7.86-1l-2.83-.37c-1.6,1.58-3.53,1.49-5,1.49,4.28,2.82,6.76,6.86,8.22,11.72l-2,.5c-1.76-5.76-4.92-10.13-10.72-12.32L192,215.15c.46.57,4.7,4.91,6.89,7.15,1.69,1.72,1.37,1.2,1.37,3.4v13.51a8.52,8.52,0,0,0,3.81-4.52h8.64c4,7,11.12,8.14,14.84,0h8.64c1.6,2.31,4.91,5.74,9.2,5,.07,0,0-12.31,0-13.5a23.46,23.46,0,0,1-5.72,2.89l-.49-2Zm46.27-13.21-5.31,4,14,5.08-33.26-.93,8.51-6.64-22.74-2.9a8.78,8.78,0,0,0,4.43-4.35l34.37,5.79Zm6.49-42.42-3.57,10.08,10.75-3.81-22,18.26,5.51-15.48-23.79,10.6c.57-3.66-1.51-6.14-4.32-8.41l37.46-11.24Zm-44.82,9c4.61,2.84,10.89,6.26,8.44,12.7-.87,2.28-6.74,14.5-8.28,16.09a6.87,6.87,0,0,1-6.28,2.13c-1.66-.33-3-2.16-2.24-3.61,1-2.27,2.06-4.46,3.18-6.63a103.07,103.07,0,0,0,4.79-10.61c2-5.21-.45-8.71-4.15-11.61-.4-.31-.79-.61-1.2-.9,2.3,0,3.9,1.28,5.74,2.44Zm-12.75-4.5a70.47,70.47,0,0,1,7.38,4.9c2.84,2.34,4.53,5,3.06,9-1.41,3.58-3,6.94-4.77,10.37-1.12,2.2-2.24,4.39-3.22,6.67a7.13,7.13,0,0,1-5.64,4.11c-2.86.35-5.59-1.85-4.42-4.48l2.07-4.75c2.07-4.7,4.17-9.33,6-14.13,2.07-5.43-.61-9-4.48-11.9-.41-.31-.83-.62-1.26-.91a6.83,6.83,0,0,1,5.3,1.08Zm-11.93-2.86c4.88,3.1,13.12,6.84,10.42,13.91-1.83,4.77-3.87,9.41-6,14.08l-2.45,5.49c-1.59,3.74-8.41,5.63-10.2,2.11a25.82,25.82,0,0,0,3.73-5.55c2.73-5.05,10-19.65,3.41-23.93-2.65-1.73-5.35-3.41-8-5.08,2.64-2.35,5.9-3.06,9.08-1Zm-21.66-.56a5.33,5.33,0,0,1,4.92-.33c5.07,2.61,9.72,5.62,14.55,8.63,5,3.29-2,17.5-4.11,21.36-1.57,2.87-2.69,5.3-5,6.1s-6.41-.06-7.25-2.68a10.88,10.88,0,0,0,5.1-7c4.38-.88,10.88-3.3,11.79-8.23.84-4.52-2.9-7.53-6.87-8.55a2,2,0,0,0-1.62,0c-3.86,1.21-8.15,2.53-11.88,4.12l-5.88-2.2c.62-4.28,2.29-9.06,6.28-11.26Zm-1.17,32.79c-3.15,1-7.85,1.46-11.22,2.06a18.51,18.51,0,0,1-.29-3.48c0-3.95.24-9.39,3.85-11.86,2.78-1.9,14.82-6.28,19.82-7.9,1.16-.37,1.17-.53,2.38-.1,2.65.93,5.11,2.87,4.52,6-.39,2.1-2.28,3.54-4,4.49a22.76,22.76,0,0,1-6.78,2.21l-.87.12,0,.85a7.67,7.67,0,0,1-1.58,3.87,11.12,11.12,0,0,1-5.76,3.71Zm-44.14-24.86,5.41,15.22L139.6,178.1l10.11,3.38-3.55-10.08,52.47,15.75c-5.75,2-9.51,2.61-11.51,7.42l-31.65-14.12Zm-2.84,34.6,49.85-8.42c1.67,3.28,5.67,4.82,10.24,2.81l1.07,1.3-45.06,5.76,8.43,6.63-33.74.89L158,219l-5.33-4Zm51.66,52.11-2.25-.4c-1.15-.17-2.25-.76-2.27-1.82,0-1.47,2-2.16,3.49-2.06,2.53.13,3.19,1.35,3.37,3h3c-.08-1.31-.31-5.2-6.48-5.28-3.42-.07-6.46,1.77-6.4,4.72,0,2.65,2.12,3.56,4.54,4.07l2.93.64c1.32.3,2.58.76,2.65,2.1,0,1.58-2.16,2.3-3.93,2.29-2,0-3.82-.94-3.73-3.17h-3c-.09,4,3.34,5.49,6.89,5.47,3.31,0,6.64-1.6,6.64-5.06,0-2.8-2.68-4-5.51-4.52ZM146.55,322.3c-4.38,3-7.33,13.35-.56,14.53a4.79,4.79,0,0,0,5-2.45,9.77,9.77,0,0,1,.43-5.51c-3.72-1.13-4.81-6.57-4.84-6.57ZM164.4,331a8.32,8.32,0,0,1-.36,3.1c.83,1.75,2.42,3.29,4.48,3.17,3.2-.13,4.67-3.87,4.53-6.63a7.85,7.85,0,0,0-.83-3.08,8,8,0,0,1-2.36-2.29A27,27,0,0,1,164.4,331Zm17.76-9.65c.31,4.12-4.3,8.66-7.53,7a9,9,0,0,1,.35,2.36c3.57,4.81,9.44,3.36,10.46-.92.54-2.23-.23-5.2-3.28-8.48Zm-11.95,28.28a7.26,7.26,0,0,1-3.06,4.69c3,10,17.45.34,7.88-7.87a8.74,8.74,0,0,1-4.82,3.18Zm-6-7.9c.15,2.78,2,6.36,5.26,6.19s4.64-3.87,4.42-6.67a7.48,7.48,0,0,0-1.3-4,5.94,5.94,0,0,1-4,1.83,8.09,8.09,0,0,1-3.76-1.1,8,8,0,0,0-.65,3.73Zm11.5,1.8a4.46,4.46,0,0,0,5.83,1.67c2.87-1.21,4.74-4.84,2.18-10.2-1.74.5-4.46,2.13-8.79-1.56a11.86,11.86,0,0,1-1.17,2.28,9.75,9.75,0,0,1,2.12,5.42,14.7,14.7,0,0,1-.17,2.39ZM171,323.43c3.15,6.14,9.23,2.85,9.55-3l-.95-1.92a13.71,13.71,0,0,1-6-3.63,20,20,0,0,1-2.6,8.58Zm-2.75,26.19a6.67,6.67,0,0,1-4.45-3.19,5.93,5.93,0,0,1-4.73,2.45c.82,2.32,3,4.87,5.68,4.4a4.57,4.57,0,0,0,3.5-3.66Zm-5.43-5.15a9.64,9.64,0,0,1,.28-7.18l-.27-.47c-1.94,2.76-5.52,4.42-8.63,2.38a8.42,8.42,0,0,0-.12,1.42c0,2.79,1.64,6.44,4.83,6.46a4.32,4.32,0,0,0,3.91-2.61Zm-3.09-7.08a7,7,0,0,0,2.75-5.61,49.41,49.41,0,0,1-3.64-6.14,7.56,7.56,0,0,1-5.41,3.45,7.69,7.69,0,0,0-.65,2.33,7.45,7.45,0,0,0,1.58,5.64,3.9,3.9,0,0,0,5.37.33Zm-7.37-10.17c2.6.41,4.71-1.73,5.61-4a20.89,20.89,0,0,1-1.16-7.67l-.3-.25c-2.51,1.77-5.57,4-8.24,5.56.45,2.16,1.35,5.56,4.09,6.32ZM147.91,347a4.86,4.86,0,0,0,5.22-2,9.76,9.76,0,0,1-.6-7.27,7.54,7.54,0,0,1-.8-1.22c-2.8,3.21-6,3.15-8.22,2.26.07,4.57,1.86,7.54,4.4,8.22Zm9,10.57c1.27-.2,3.81-1.88,4.34-3.18a8.74,8.74,0,0,1-4.28-5.85,6.07,6.07,0,0,1-2.8-2c-.44,1.18-1.57,2.25-3.77,2.81-.5,2.94,2.24,8.84,6.51,8.18Zm7.72,6.59c1.76-.3,3.13-2.57,3.57-4.37a11.5,11.5,0,0,1-2.87-4.8,5.41,5.41,0,0,1-2.3.06,9.79,9.79,0,0,1-4.79,4.48c.75,2.44,3.56,5.1,6.39,4.63Zm7.46,4.8c4.11,1.79,8-1,8.21-5.34a11.76,11.76,0,0,0-1.76-6.36,8.09,8.09,0,0,1-8.21,3c-.29.89-1.37,3.83-2.42,4.45A8.13,8.13,0,0,0,172.1,369Zm10.17-11.12a2.52,2.52,0,0,1,2.51-2.09,2.57,2.57,0,0,1,2.56,2c.79,3.38,2.42,5.46,4.61,5.83a4.23,4.23,0,0,0,3.93-1.32c1.58-2.42.91-4.38,0-7.11s-2.14-6.15-.72-10.57a16.17,16.17,0,0,1,3.34-6.07H187.25a7.37,7.37,0,0,1,.05,1.64c-.32,3.89-3.22,8-7.4,8.15a11.07,11.07,0,0,1,.32,6.94,9.3,9.3,0,0,1,1.14,1.76,14.45,14.45,0,0,1,.74,1.88l.17-1ZM239,378.61a17,17,0,0,0-.17-4.94,8.94,8.94,0,0,0-3.65-5.81,6.88,6.88,0,0,1-1.82,5.57,6.28,6.28,0,0,1-6.4,1.72c-2.4-.78-4-2.95-4.35-6-.47-3.94-1.89-6.75-4.25-8.33a10,10,0,0,0-5.37-1.53,14.61,14.61,0,0,1,2.51,8.48,9.06,9.06,0,0,1-2.9,6.71c-4.85,4.15-10.75,2.33-14,.8a10.21,10.21,0,0,0,1.41,4.14,79.19,79.19,0,0,0,38.94-.85Zm-3.17-18c-7-2.19-7.4-7.37-7.45-13.62,0-6.5-.46-11.37-6.91-14.66l-.87-.44.24.94c1.19,4.76.43,11.66-3.11,15.3a7.76,7.76,0,0,1-8.19,2,7.63,7.63,0,0,1-5-4.25,11.93,11.93,0,0,1-.45-7.12l0-.23h-1.21c-2.61,1.4-4.18,4.12-5.07,6.89-1.06,3.34-.4,5.73.69,8.88,1.19,3.48,1.9,6.15-.27,9.46-1.34,2.06-4.43,2.95-6.78,2.54-2.89-.48-4.84-2.56-6-5.15l-.65-1.53-.2,1.65a39.64,39.64,0,0,0,.7,14,77.55,77.55,0,0,0,11.41,3.91,10.49,10.49,0,0,1-.63-6.7l.42-1.64,1.42,1c3.66,2.51,9.11,3.85,12.8.69a6.51,6.51,0,0,0,1.93-4.74,12.06,12.06,0,0,0-3.7-8.87l-1.45-1.41,2-.5a14,14,0,0,1,10.41,1.67c3.48,2.35,5,6.24,5.45,10.27.18,1.52.85,3.16,2.45,3.67a3.39,3.39,0,0,0,3.47-1c1.51-1.59,1.24-4,.46-5.82l-.78-1.85,2,.28c4.62.67,7.59,4.49,8.55,8.87a19.82,19.82,0,0,1,.35,5.09,78.76,78.76,0,0,0,11.91-5.31,37.76,37.76,0,0,0,.77-5.13c.4-6.8-1.74-15.3-7.19-19.8l-1.11-.92.4,1.38a10.64,10.64,0,0,1-1.7,9.18,8.07,8.07,0,0,1-9.15,3Zm-20.57-22.73a.42.42,0,0,1-.39.61H207a10.14,10.14,0,0,0,.09,6.3,4.84,4.84,0,0,0,3.27,2.72,4.91,4.91,0,0,0,5.33-1.21c3-3.1,3.57-9.95,2-14a2.42,2.42,0,0,1,.62-2.65,2.58,2.58,0,0,1,2.74-.49,15.64,15.64,0,0,1,7.75,6.09,6.54,6.54,0,0,0,.06-.89,7.33,7.33,0,0,0-14.47-1.44,6.86,6.86,0,0,0,.8,4.95Zm22.3-3.05a15,15,0,0,0-.18-3.72l.51-.47,4.39-3.6a20.84,20.84,0,0,0-1.07-2.38l-5.92.28h-.65l-.44-.5a14.49,14.49,0,0,0-2.79-2.56l-.54-.42.08-.6.28-5.47c-.83-.36-1.73-.69-2.61-1l-3.95,4-.45.48a19.79,19.79,0,0,0-5.27,0l-.51-.48-3.92-4a26.67,26.67,0,0,0-2.61,1l.3,5.47,0,.6a22.38,22.38,0,0,0-3.74,3.48h-.69l-5.94-.28a20.81,20.81,0,0,0-1,2.38l4.37,3.6.51.47a20.08,20.08,0,0,0-.17,3.72h5.42l-.08-1.26c0-5.45,4.77-9.86,10.69-9.86s10.68,4.41,10.68,9.86l-.09,1.26ZM257,345.68c4.53.21,7.94-.8,10.18-3a9.92,9.92,0,0,0,1.74-2.45,11.34,11.34,0,0,1-.21-2.68,25.63,25.63,0,0,1-6.67-1.19l-.4.28c-3.24,2.57-4.3,6.86-4.64,9.05Zm1.22,10.05a22.66,22.66,0,0,0,5.83-3,13.21,13.21,0,0,1-.34-4.85,18.26,18.26,0,0,1-3.78.68c-1.65,2-1.88,5.59-1.71,7.2Zm5.47,8.67a17.2,17.2,0,0,0,6.62-3.54,17.34,17.34,0,0,1-.59-2.86,23.39,23.39,0,0,1-3.23.87c-.54-1.07-1.05-2.1-1.5-3.22a17.92,17.92,0,0,1-3,1.66,18.53,18.53,0,0,0,1.71,7.09Zm4.42-8.95c1.91-.61,5.74-2.19,7.45-5.22a11.36,11.36,0,0,1-.06-2.67c0-.25.07-.49.11-.72a20.22,20.22,0,0,1-2.64.86,1.47,1.47,0,0,1-1.66-.75,30.35,30.35,0,0,1-1.34-3c-.21.24-.45.51-.69.74a11.91,11.91,0,0,1-2.12,1.67c-1,2.32-.73,5.37.95,9.07Zm5.7,6.49a16.33,16.33,0,0,0,4.71-4.9,17.12,17.12,0,0,1-1.94-3.3,15.59,15.59,0,0,1-4,3,15.72,15.72,0,0,0,1.21,5.24Zm8.78-4.56a17,17,0,0,0,3.77-6.39,9.12,9.12,0,0,0,.36-3.36,24.55,24.55,0,0,1-5.41-4.43,14.4,14.4,0,0,1-2,1.64,8.87,8.87,0,0,0-.89,3c-.3,3.07,1.09,6.26,4.14,9.53Zm23.17-35.47c-4.3.52-7.73,2.2-9,6.76-1.63-4.75-4.92-6.17-9.13-6.67,0,3,3,6.15,5.85,7.52a6.06,6.06,0,0,0,4.13.68c3.88-1,7.51-4.21,8.1-8.29Zm0-6.84c-4.3.53-7.73,2.19-9.16,6.66-1.63-4.75-4.92-6.17-9.13-6.67.63,4.08,4.13,7.32,8.15,8.32a3,3,0,0,0,2,0c3.88-1,7.51-4.21,8.1-8.29Zm-5.93-74.38v34l1.53-1.14V239.47l-1.53,1.22Zm-3.93,27.88a9.53,9.53,0,0,0-1.35,4.91c0,2.32.77,3.42,2.09,5.06,1.29-1.64,2.11-2.74,2.11-5.06a9.45,9.45,0,0,0-1.33-4.82V236.92l-.69-1.23-.83,1.23v31.65Zm-4-29.28v34.3l1.48,1.14V240.5l-1.48-1.21Zm-4.39,35a9.14,9.14,0,0,0,3,5.62,11.51,11.51,0,0,0,6.08,3.2,11.53,11.53,0,0,0,6.1-3.2,9.72,9.72,0,0,0,3.14-5.62l-.12-32.75-1.54,1.21v31.86a12.45,12.45,0,0,0-4.46,2.56,13.15,13.15,0,0,0-3.08,4.23,12.2,12.2,0,0,0-3.1-4.23,11.38,11.38,0,0,0-4.54-2.56v-32l-1.51-1.2v32.87Zm0,6.63c.64,4.06,4.13,7.31,8.15,8.31a3,3,0,0,0,2,0c3.88-1,7.51-4.21,8.1-8.29-4.28.52-7.72,2.18-9.16,6.67-1.63-4.74-4.92-6.17-9.13-6.67Zm0,6.82c.63,4.09,4.13,7.34,8.15,8.32a3,3,0,0,0,2,0c3.89-1,7.52-4.21,8.1-8.31-4.28.52-7.72,2.19-9.16,6.67-1.63-4.74-4.92-6.16-9.13-6.67Zm0,6.85c.63,4.08,4.13,7.32,8.15,8.31a3,3,0,0,0,2,0c3.88-1,7.51-4.21,8.1-8.29-4.3.51-7.73,2.19-9.16,6.66-1.63-4.75-4.92-6.17-9.13-6.67Zm0,6.82c.63,4.08,4.13,7.34,8.15,8.31a3,3,0,0,0,2,0c3.88-1,7.51-4.21,8.1-8.29-4.3.53-7.73,2.21-9.16,6.66-1.63-4.74-4.92-6.17-9.13-6.67Zm9.13,13.52c-1.63-4.75-4.92-6.17-9.13-6.67.63,4.08,4.13,7.32,8.15,8.31a3.1,3.1,0,0,0,2,0c3.88-1,7.51-4.21,8.1-8.29-4.3.52-7.73,2.2-9.16,6.66ZM285,309l-.51,14.8c1.75.77,1.81,1,1.91,1.62a8,8,0,0,1-.63,4.27c-.07.16-.12.32-.17.46a17.72,17.72,0,0,1,5.13,4.64h3.54v-3.55l-.43-.12c-5.15-1.48-8.05-5.65-8.44-11.55l3,.41c-2-1.2-3-4.61-3-7.17.4,0,2.6.35,3,.42a7.14,7.14,0,0,1-2.58-4.23Zm4.82,37.07c.84-2.74,1.63-8.81-5.58-13.34a2.8,2.8,0,0,1-1.49-3.48,10.87,10.87,0,0,0,.74-2.69c-.71-.29-1.94-.79-3.18-1.27a5.27,5.27,0,0,1-1.1,2.94c-.41.49-1.39,1.23-3.36.79-2.39-.71-3.72-1.68-7.52-1a10.89,10.89,0,0,0-7.19,5,22.19,22.19,0,0,0,9.06,1.6,1.48,1.48,0,0,1,1.24.49,1.44,1.44,0,0,1,.34,1.25c-.47,2.17.07,4.93,1.6,8.19,1.7-.59,4.94-2,6.71-4.5a1.49,1.49,0,0,1,1.23-.63h0a1.5,1.5,0,0,1,1.22.64,21,21,0,0,0,7.27,6.05Zm-6-37h-4l-7.47,16.09a36.57,36.57,0,0,1,4.65,1.14,3.9,3.9,0,0,0,.39-1.66,2.52,2.52,0,0,1,1-2.17,2.36,2.36,0,0,1,2.43,0l3-13.36Zm-5.12,0h-4l-22.93,25.76h6.29a1.4,1.4,0,0,1-.39-1.65c0-.09,3-6.69,10-8l11-16.12Zm-5.64,0h-3.5L240.2,333.59l0,1.22h0v0h3.92l29-25.75Zm-5.1,0h-3.6l-23.19,13.14.7-.08h.84l.4.65a21.16,21.16,0,0,1,1.33,2.75L268,309.07Zm-5.15,0H260L233.6,319.69l-.06.69a19.86,19.86,0,0,1,2.23,2.05h.16l26.9-13.36Zm-5.08,0h-27l1.26.65.63.38v3.24l.52.24.72.37v.75l-.22,2.9,24.07-8.53Zm-67.07-4.38.07,8.35c.62,1.14,1.17,2.33,1.76,3.49l.4.74,1.26,2.66-3.11.44-.89.11a30.14,30.14,0,0,1-5.45.28,15.64,15.64,0,0,1,2.13,3.18,10.09,10.09,0,0,1-.8,10l.37.84h16.42v-2.76l-4.53-3.82-.61-.49a26.46,26.46,0,0,1,2.53-5.67h.83l6.12.3a20.55,20.55,0,0,1,2.21-2.05l-.33-5.66,0-.75.75-.38a24,24,0,0,1,4.62-1.76l.81-.24.56.58,4.11,4.19h3.19l4.08-4.19.55-.58.83.24,1.41.46v-.79L219.77,305l0,7.33-14.46-8-.05,8-14.54-7.62Zm-25.64.25c-3.77-6.81-18.63-6.16-25.42-1.55l-1.87,1,1.84.93c3.94,1.71,10,2.23,10.81,2.31-3,1.32-5.22,2.49-7.25,5.14a21.14,21.14,0,0,0-3.72,8.82v1.23c7.12-1.69,18.15-10.22,18.35-10.33l1-.85c-.69,5-.77,11,4.35,18.35,10.78-8.33,8.69-18.44,8.67-18.56l1.29-.27c2.62,5,11.7,7.58,17.22,7-4.25-11.17-13.1-21.33-25.31-13.18Zm-25.56,11.15a15,15,0,0,1,5.33-7.41,20,20,0,0,1-5.25-1.4l-.08,8.81Zm48.14-82.84c-1.93-.36-4.45.45-7.48,2.29,2.91,1.36,8,2.08,10.71-.18a3.94,3.94,0,0,0-3.23-2.11Zm-10.86-1.71c-2.13.39-5,2.22-6.72,3.6a7.34,7.34,0,0,0,3.28,1.2,6.33,6.33,0,0,0,4.72-1,28.85,28.85,0,0,1,4.46-2.47c-.71-.74-2.36-1.88-5.74-1.37Zm-5.86,1a15.73,15.73,0,0,0-13.83-.78,18.86,18.86,0,0,0-4,2.13,13.26,13.26,0,0,0,8.21,3.17c3.76.06,6.66-2.57,9.65-4.52Zm-14.69-2c-6-.76-16.33.25-17.35,7.87a18.62,18.62,0,0,1,6.19.18,25.11,25.11,0,0,1,11.16-8.05ZM137.32,334.83l.28-28.48a13.72,13.72,0,0,1-1.69-1l-.23,18.89,0-.13,0,2.21v.1l-.13,8.42Zm.3-32.74.57-59.07h2l-.56,58a27.85,27.85,0,0,1,7.25-2.62l-.54-58.06c-1.89-1.08-7.53-1-9.52-.06L136,303.09c.53-.34,1.07-.67,1.62-1Zm1.67,32.74h1.47a11.8,11.8,0,0,1-.53-4.18,14.07,14.07,0,0,1,3.22-7.67,10.33,10.33,0,0,1-4.06,1l-.1,10.8Zm55.3-64V261h-3.07v9.9c0,1.89-.89,3.46-3.71,3.49s-4.17-1.52-4.17-3.56l0-9.83h-3v9.83c0,3.38,2.46,6.05,6.9,6,5.13,0,7.07-2.45,7.07-5.91Zm70.71,5.43h3.17L261.68,261H259l-6.34,15.33h3l1.43-3.43h6.64l1.51,3.43Zm-7.22-5.74h4.69L260.31,265l-2.23,5.57Zm2.35,23.92h-7.68v-13h-3.07v15.34h10.75v-2.31ZM178.9,271V261h-3.08v10.89c0,1.31-.67,2.69-2.21,2.69s-2.22-.8-2.25-2.69h-3a4.67,4.67,0,0,0,5.06,4.92c4.53-.16,5.49-2.66,5.49-5.81ZM183,294.89c-1.92,0-3.76-.89-3.69-3.12h-3c0,4,3.34,5.54,6.9,5.48,3.32,0,6.65-1.56,6.65-5.05,0-2.85-2.69-4-5.53-4.54l-2.22-.38c-1.14-.22-2.24-.78-2.27-1.85,0-1.47,2-2.11,3.49-2,2.49.11,3.2,1.34,3.33,3h3c0-1.28-.29-5.16-6.48-5.29-3.41,0-6.44,1.76-6.4,4.74,0,2.67,2.13,3.55,4.52,4.09l3,.63c1.25.28,2.55.78,2.6,2.1.12,1.6-2.14,2.26-3.93,2.24Zm94.8-48.79L274.57,244a12,12,0,0,1-9.42,4.43,11.57,11.57,0,0,1-10-5.51h-3.48a11.9,11.9,0,0,1-20.08,0H228a11.49,11.49,0,0,1-10,5.51A11.64,11.64,0,0,1,208,242.9h-3.49a11.66,11.66,0,0,1-10.05,5.51,11.53,11.53,0,0,1-10-5.51H181a11.63,11.63,0,0,1-10.07,5.51,11.91,11.91,0,0,1-8.83-3.82l-3.05,2.3a16.18,16.18,0,0,0,23.66.06,16.16,16.16,0,0,0,23.58,0,16.19,16.19,0,0,0,23.61,0,16.18,16.18,0,0,0,23.6,0,16,16,0,0,0,11.74,5.11,15.71,15.71,0,0,0,12.6-6ZM147.1,385.73l-1.27-1-2.59,3.11,1.1.84a3.71,3.71,0,0,0,2.17,1,2,2,0,0,0,1.91-2.17c0-.54-.48-1.13-1.32-1.77Zm228-279.44h.05V162H362.93V296.33c0,75.92-64.18,137.68-143,137.68-2.45,0-4.88-.06-7.31-.17h0c-1.19-.06-2.37-.14-3.55-.22C135.29,428.19,77,368.7,77,296.35V162H64.79V106.29h73.63l0,10.59h49.87V106.31l50.08,0h12.52v10.59h48.6V106.29H327v0h5.14v0h24v0h5.14v0Zm-42.6,118.25v6L351,237.29v-5.64l-3.05-.86V224.5l3.05-.89v-5.8l-18.53,6.73ZM351,247.44H332.45V253H351v-5.54Zm-18.53,24v9.2H351v-5.55h-7.52v-.49a2.31,2.31,0,0,1,.43-1.35,4.17,4.17,0,0,1,1.42-1l5.67-2.95V263l-5.36,2.68a8.93,8.93,0,0,0-1.16.78,7.29,7.29,0,0,0-1,.89,5,5,0,0,0-.68,1.43,6.77,6.77,0,0,0-.74-1.93,5,5,0,0,0-1.82-1.75,5.89,5.89,0,0,0-5.65.19,4.11,4.11,0,0,0-1.69,2.19,12.6,12.6,0,0,0-.46,3.91ZM301.6,129.34,291,153h5.77l2.28-5.39h10.84l2.29,5.39h5.94l-10.82-23.63Zm-40.64,0V153h5V137.48L277,153h5.43V129.34h-5.06v15.83l-11.1-15.83Zm-25.11,0L225.31,153h5.79l2.23-5.39h10.81l2.34,5.39h5.92l-10.85-23.63Zm-40.67,0h0v12.59a24.31,24.31,0,0,0,.57,6,6,6,0,0,0,1.52,2.64,9.16,9.16,0,0,0,3.11,2,16.62,16.62,0,0,0,5.89.78,15.88,15.88,0,0,0,5.22-.71,7.82,7.82,0,0,0,3.1-1.92,6.58,6.58,0,0,0,1.68-3,29.12,29.12,0,0,0,.46-6V129.31h-5.51v13.08a23.48,23.48,0,0,1-.23,4,3.09,3.09,0,0,1-1.34,2.05,6.48,6.48,0,0,1-3.53.84,6.33,6.33,0,0,1-3.57-.89,3.83,3.83,0,0,1-1.66-2.32,29.27,29.27,0,0,1-.2-3.94V129.34Zm-23.52,15.79-5.19.52a7.66,7.66,0,0,0,2.15,5.75,8.88,8.88,0,0,0,6.17,2,9.73,9.73,0,0,0,5.43-1.27,6.45,6.45,0,0,0,2.94-3.29,13.83,13.83,0,0,0,.56-4.52v-15h-5.46v15.29a7,7,0,0,1-.72,3.79,3.25,3.25,0,0,1-2.57.89A2.91,2.91,0,0,1,172.3,148a6.32,6.32,0,0,1-.64-2.9Zm-19.39-15.79V153h5.47V129.34Zm-30.33,0v4h7.92V153h5.47V133.36h8v-4ZM118.88,160H321.21V296.32C320.67,350.89,276.58,395,220,396.76c-33.73.75-62-13.53-79.77-36.42a102.76,102.76,0,0,1-21.35-64V160ZM108.51,308.62l-.11-2.81-3-1.7.1,2.22,3,2.29ZM88.83,229.74v5.79l18.53-6.72v-6l-18.53-6.73v5.64l3.06.88v6.27l-3.06.9Zm-.7,29.79a19.17,19.17,0,0,0-1.38,2.3l3.2,1.54c.25-.54.46-1,.64-1.28s.43-.67.94-1.36a10.28,10.28,0,0,0,6.57,1.95c3.08,0,5.44-.8,7.09-2.42a9.22,9.22,0,0,0,2.47-6.89,9,9,0,0,0-2.53-6.81c-1.67-1.63-4-2.43-7.1-2.43a9.55,9.55,0,0,0-7.32,2.78,9.11,9.11,0,0,0-2.19,6.44,11.45,11.45,0,0,0,.81,4.6c-.26.29-.66.82-1.2,1.58Zm.57,20.31a27.58,27.58,0,0,0-.19,2.84,11.11,11.11,0,0,0,.61,3.87,6.56,6.56,0,0,0,1.54,2.22,7.07,7.07,0,0,0,2.56,1.55,9.55,9.55,0,0,0,3.1.5h11V285.3H96.05a3.32,3.32,0,0,1-2.38-.8,3,3,0,0,1-.84-2.25,2.93,2.93,0,0,1,.85-2.25,3.32,3.32,0,0,1,2.37-.81h11.3v-5.51h-11a11.16,11.16,0,0,0-3.14.51,6,6,0,0,0-2.13,1.18,6.32,6.32,0,0,0-1.6,1.9,7.43,7.43,0,0,0-.75,2.57Zm.21,23.57.37,5.53,15.2-.91-.36-5.53-15.21.91Zm13.18,50.8,3.86-1.55-3.81-8.81,3.37-1.36,3.44,7.94,3.48-1.41L109,341.08l2.71-1.1,3.71,8.56,3.65-1.48-5.92-13.67-17.1,6.91,6,13.91Zm16.58,24.5,2.84,3.61,14.78-10.77-4.53-5.81L121,370.08l7.25-8.8-4.54-5.8L109,366.25l2.82,3.62,11.28-8.22-9.11,11,2.55,3.28L130,370.48l-11.28,8.23Zm33.74,13.5a5.2,5.2,0,0,0,1.42-4.11,6.35,6.35,0,0,0-2.71-3.93l-7.41-5.74-11.59,13.95,4.48,3.48,4.3-5.18,2.45,1.89a7.45,7.45,0,0,0,5,1.93,5.78,5.78,0,0,0,4.06-2.29Zm8.74,19.12,8.68-15.81-5.07-2.59-8.68,15.81,5.07,2.59ZM193.43,408l1.16-3.66L179.92,400l-5.4,17.12,14.94,4.39,1.22-3.88-9.46-2.79,1.06-3.37,8.53,2.51,1.09-3.49-8.52-2.5.86-2.72,9.19,2.7ZM220,410.66l.26-3.57L204.09,406l-.27,3.82,9.27.61-11,9.66-.26,3.71L219.35,425l.27-3.83-10.75-.72L220,410.66Zm25.09,11.77,5.92-.93-9.83-16.59-6.17,1-3.92,18.73,5.77-.89.41-3.06,6.42-1,1.4,2.77Zm35.15-11.71,12.66-7.18-2.31-3.8-7.71,4.36-7.06-11.63-4.94,2.79,9.36,15.46Zm32.49-23.14L310,386l-4.74,4.3,1.44,2.76L302.4,397l-7.62-17.65,4.54-4.12,17.76,8.43-4.36,3.95Zm22.43-28.67,2.46-5L331.4,351l1.34-2.72c1.74-3.55,1.38-6.68-2.45-8.45-3.53-1.63-6.13-.3-7.8,3.06l-4.08,8.3,16.74,7.69ZM348.52,323l1.37-5.63-19.63,2.49-1.41,5.88,16.46,10.6,1.33-5.5-2.77-1.52,1.47-6.12,3.18-.2Zm2.4-20.43L351,297l-13.95-.22.09-5.64-4.57-.07-.28,16.8,4.57.07.1-5.63,13.94.22Zm-7-73v-3.92l-6.65,2,6.65,1.94Zm-248-1.87,6.66-2-6.66-1.95v3.93Zm-1.67,24.58,2.07.86a5.25,5.25,0,0,1-.34,1.14,13.64,13.64,0,0,1-1.06,1.59c-.14.19-.28.38-.42.61,1.75.94,6.11.95,7.67-.35a3.66,3.66,0,0,0,0-5.45,5.9,5.9,0,0,0-3.84-1c-2,0-3.44.33-4.26,1a3.35,3.35,0,0,0-1.22,2.74,4.05,4.05,0,0,0,.12,1.06,6.8,6.8,0,0,0,1.3-2.18Zm149.56-236L216.25,36.4c15.58,12.54,37.11-4.56,27.72-20.27l-.18.13Zm-15.4,22.46a15.14,15.14,0,0,1-8.47-2.56l4.74-3.54a8.82,8.82,0,0,0,5.5,2,8.48,8.48,0,0,0,8.6-8.27,7.64,7.64,0,0,0-.83-3.39l4.86-3.51a14.39,14.39,0,0,1,.83,4.67c0,8.05-6.87,14.64-15.23,14.64ZM339.12,270.36a1.73,1.73,0,0,0-1.07-.34,1.75,1.75,0,0,0-1.38.54,3.26,3.26,0,0,0-.47,2.07v2.42H340v-2.33a7.44,7.44,0,0,0-.26-1.47,1.49,1.49,0,0,0-.58-.89ZM378.77,1.44,331.6,20.11,302.06,67.48,276.28,82.9l-10.6-34.72c3.51-1.88,5.34-.62,7.81,0,3.84.64,13.53,2,16.65-.81,1.56-1.42.89-3.37-.8-4.22-3-1.54-8.4.92-12.37-1.4a17.52,17.52,0,0,0,6.43-9,5.48,5.48,0,0,1,1.23-2.05A8,8,0,0,1,285.68,35a9.67,9.67,0,0,0,.07-5.41,2.71,2.71,0,0,0,.45-3.38c-.45-.66-1.55-2.07-2.67-2.32-1.59-.4-2.78,1.06-6.19,3.09a4.93,4.93,0,0,0-5.94,2.93c-1.17,2.41-1.59,6.81-6.78,8.89l-1.61.71Q257.85,22.62,252.75,6l1.14-.59.69-1.59c-.29-1.47-2.79-3.13-5.45-3.67-2.88-.49-6.34.4-10.57,1.67a276.18,276.18,0,0,0-43.43,17.31c-7.95-.86-21-2.21-28.57-1.17-2.25.3-6.91,5.37-7.2,7.19-1.71,2.06-3.55,3.87-5.22,6.05s1.46,10.1,4.87,17.54c-11.94-.73-22.45,0-30.73,2L106.73,20.09,59.63,1.44,0,40.32V331.54c27.05-17,54.47-40.68,72.41-67v-9.42c-1.67,2.74-4.74,8.42-7.37,10L53,257.9V220.53L65,227.8l7.37-4.44v-5.87L65,221.94,53,214.66V177.29L65,184.57l7.37-4.45v-5.86L65,178.7,53,171.42v-9.14a86.74,86.74,0,0,0,7.19-8.48v-6.68C57,151.46,52.79,158,47.38,162c-8.32,6.23-22.9,5.61-32.52-6.81,33.43,11.85,33-17.45,45.32-24.39v-4.39A18.54,18.54,0,0,0,53,131.59V90.82L65,98.1,77.1,90.82v11h5.15V69.24l12,7.23,12-7.23v32.59h5.16V79.64a48.23,48.23,0,0,0,4.39,6.82c2.85,3.74,3.92,6.66,3.7,10.07a16,16,0,0,1-1.41,5.31h4.39a18.38,18.38,0,0,0,1.14-5.07c.34-5.49-2.08-9.48-4.49-12.66-6.6-8.67-8.25-15.72-4.91-21,6.34-10,31-13.42,61.27-8.6a20.86,20.86,0,0,0,0,6.79c-8.37-.63-40.73-2.42-48.11,6.45-5.72,6.88-1.17,14.31,2.49,20.27,2.14,3.49,4.15,6.77,4,9.32a21.07,21.07,0,0,1-.77,4.44h4.23A18.86,18.86,0,0,0,138,96.7l15.86,9.85.1-.14-1.21,6h5.93c2-10.26,6.32-33.47,8.29-47.55L169,65c-1.27,9.34-6.1,33.94-8.66,47.48h1.86l.29-1.54,1.43,1.54h2.4l-3.43-3.75,1.37-7.56,5.59,6.62,6.61-5.4-1.23,7.08-3.73,3h5.56l-.4-.71,1.56-8.76,3.26,6.26,1.65-1.75v-2.69l-1.21,1.32L178.79,100l1.5-8.71L183.45,98,189,91.6,187.53,100l-1.65,1.8H189l.4-2.23,2.87,2.23h2.87l-5.38-4.21L191.12,90l9.14,7.87,10.34-7.33.46,7.26-6.12,4h3.25l3-2,.13,2h3.32L213,99.56l-.53-8.26,4.26,6.09L220.82,91l.52,8.57-1.49,2.26H229l-5.91-3.58-.41-6.76,12,7.75,9.62-8.67,1.84,7.32-5,4H244l2.56-2.07.53,2.07H249l-.71-2.93,5.48,2.93,1.7.91,1.54.8.2-1.18,1.93-8.44,3,6.8-2.17,10-4.5-1v2l1.38.68h4.49l2-9,1.59,3.59,0,0,.06,0,2.36,5.29h2l-1.16-2.59,3.08,2.59h8.18l-3.28-2.88-4.44-11.75,5.47,4,.73-4.74,3.41,11.26-.73,4.08h4.95l-1-5.82,32.78-18.87L327,72.62v29.17h5.14V69.2l12,7.23,12-7.23v32.59h5.14v-11l12.06,7.27,12.05-7.27v37.37l-5.88,3.56v5.86l5.88-3.55V171.4l-12.05,7.28-6-3.62v5.87l6,3.61,12.05-7.28v37.38l-12.05,7.27-6-3.61v5.85l6,3.62,12.05-7.28v37.37l-12.05,7.28-1.21-.73c-1.66-2.32-3.26-4.68-4.77-7.08v9.2c25.53,36.23,65,61.22,67.06,62.48l4,2.48V40.32L378.77,1.44ZM53,263.78l9.51,5.73c-3.05,3.93-6.24,7.72-9.51,11.34V263.78ZM19.3,311.85c-6,4.66-11,8.2-14.18,10.41V259.92L19.3,251v60.87Zm0-66.8L5.12,254V203.84L19.3,194.9v50.15Zm5.14-77.42c8.5,4,19.78,1.27,23.37-1.88v27.44L36,200.33l-11.55-7V167.63Zm0,31.6,11.55,7,11.82-7.14v37.38L36,243.57l-11.55-7V199.23Zm0,43.24,11.55,7,11.82-7.12v37.37L36,286.81l-11.55-7V242.47Zm0,43.24,11.55,7,11.82-7.12v.79a272.1,272.1,0,0,1-23.37,21.4v-22Zm-12-135.84a2.11,2.11,0,0,0-2.14.12,2,2,0,0,0-.88,1.89,20.39,20.39,0,0,0,9.9,13.53V189L5.13,197.89V147.75l14.18-8.93V152.4c-2.26-.68-5-1.15-6.88-2.53Zm6.87-17L5.12,141.82V91.67L19.3,82.74v50.14ZM47.81,137c-.55,1.86-6.49,18.24-23.37,16.41V112.75l11.55,7,11.82-7.14V137Zm0-30.24L36,113.84l-11.55-7V69.51l11.55,7,11.82-7.13v37.38Zm0-43.24L36,70.61l-11.55-7v-8.3L47.81,37.58v25.9ZM77.08,85,65,92.23,53,85V47.15l12,7.28,12.06-7.28V85Zm0-43.67L65,48.56,53,41.29V33.65l8.51-6.48,15.6,6.89v7.23ZM94.22,70.61l-12-7.24v-27l8,3.53,14.53,24.41L94.22,70.61Zm15.52-7.88L93.84,36,60.75,21.38,19.3,52.92V76.79L5.12,85.73V43L60.21,7l43.12,17.08,19.8,28.18a30.13,30.13,0,0,0-9,4.92,15.73,15.73,0,0,0-4.34,5.51Zm45.16,38.62L135.24,89.13c-.58-1-1.21-2-1.85-3.09-2.71-4.42-4.68-8-4.63-11.15.05-3.51,2.31-5.66,5.34-7l5.17,7.35,18.65,11-3,15.07ZM159,81.06,142.9,71.59l-3.65-5.2c6.4-1.34,15-1.7,22.71-1.63l-3,16.3ZM268.61,66.88l3.36,11h0l-.82,6-5.28-3.35-.06.08-2.08-5.89,0-.15h-.09l-2.06-6L268,71.9l.63-5Zm-20.52-2.19c.16-.1.32-.22.48-.34l7.37,4.94L257.47,62l4.39,12.75-1.09,6.58-7.95-6-4.73-10.64ZM249.31,72l-1.53,6.89-5.4-3.65-1.58-6.51a42.94,42.94,0,0,0,5.73-3L249.31,72Zm.83-8.72a55.75,55.75,0,0,0,6-5.2l-1.4,8.25-4.56-3.05Zm17.09-.57-.76,6.38-5.71-3-3.24-9.45c.49-.52,1-1.07,1.47-1.61l4.46,2,.54-5.17,3.24,10.9Zm-7-9.1c.67-.8,1.33-1.62,2-2.49l-.34,3.21-1.66-.72ZM259,35.41l1.59,5.17c-.75.33-1.44.68-2.18,1l.59-6.2Zm-1.24-4.19-1.17,9.65-5.8-4-.36-1a31.12,31.12,0,0,0,4.43-14l2.9,9.34Zm-1.64,11.49c-.93.44-1.84.87-2.87,1.39l-1.48-4.42,4.35,3ZM180,67.94a20.37,20.37,0,0,1-.58-15.32c2.41-6.74,10.26-9.46,16.25-11.19.87-.27,1.6.49,3.1,2.26,1.77,2.1,3.94,4.66,7.76,4.66a27.54,27.54,0,0,0,7.37-1.05c2.56-.61,7.75-2.27,12.21-2.27,7.66,0,10.61,3.38,12.57,7.65-5.39,3.91-12.82,9.19-22.6,4.42-7.79-3.72-16-4.49-22.59-2.09-5.77,2.06-10.8,7.5-13.49,12.93Zm12.9-2.55-5.06,6.46-2.6-6.54a69.72,69.72,0,0,1,7.66.08ZM246.78,14.3a19.14,19.14,0,0,1,1.69,8,20,20,0,0,1-6.38,14.41,21.6,21.6,0,0,1-28.19,1.59c-3.17,5.15-7.4,4.63-9.19,2.4-1.5-1.86-1.37-4.88,3.52-7.2l39.05-20.81-.5.93v.71ZM236.64,46.88l8,2c-1.34.77-2.68,1.59-3.89,2.39a11.71,11.71,0,0,0-4.09-4.42Zm2.29-1.24a25.29,25.29,0,0,0,9.34-6.88l-2.19,8.69-7.15-1.81Zm10.92-5.74L251.59,45c-1.16.61-2.35,1.26-3.49,1.89l1.75-7Zm3.32-23.37a40.39,40.39,0,0,1-1,10.36c-2.16,9-8.79,16.89-18.23,18.56a22.07,22.07,0,0,0-3.71-1.15c11.32-1.44,20.13-10.76,20.13-22a21.64,21.64,0,0,0-1.72-8.3L251,9.63l2.15,6.9ZM246.23,3.4a5.82,5.82,0,0,1,4.86,1.44c-14.27,7.32-30.12,14.83-45.18,23,9-6.29,30.16-22.1,40.32-24.42Zm-25.85,8.11-8,5.76-4.9,3.54v0l-7.79,5.6,5.74-8.73c5-2.16,9.88-4.24,14.94-6.2ZM194.13,22.09l-2.6,6-2.67-6.57c1.75.13,3.54.29,5.27.53Zm-7.31-.71,3.75,9.37.88,2.1.86-2,4.05-8.75c1.95-1,3.95-2,5.9-2.87L195.4,29.59l1.31,1.2,30-21.63c1.94-.72,3.83-1.37,5.66-2L200,30.4l.65,1.93c-.72.68-4.28,2-6.7,2.93-.81-.42-2.52-1.3-4.07-2.29l-.83-.64.58-.58-10.26-10.9c2.48.15,5,.31,7.44.53Zm-19-.34a65.53,65.53,0,0,1,9-.32l1.47,1.55L185.71,30l-22.43-4.67c1.06-1.53,3.63-4.07,4.51-4.25Zm-5.66,6.43c3.45.71,20,4.16,24.48,5.08a3.48,3.48,0,0,0,2,2.44,44.68,44.68,0,0,0,5.28,2.85,22.76,22.76,0,0,0,9.73-5.4l-1-1.48c7.42-3.49,37.88-18.92,47.74-23.8l.35,1.31L207.34,31.92c-1.11.56-4.66,2.55-5.27,5.26a5.49,5.49,0,0,0,1.4,5.33c3.05,2.92,8.47,1.75,10.39-2.1a23.38,23.38,0,0,0,7.25,3.3A36.45,36.45,0,0,0,213.3,45a28.27,28.27,0,0,1-6.74,1c-2.72,0-4.29-2-5.88-3.83s-3.13-3.77-5.65-3c-1.74.48-3.45,1-5.18,1.48a4.9,4.9,0,0,0-.13-2,4.48,4.48,0,0,0-3.31-3.38c-3.75-.83-20.65-4.83-25.87-6.12.66-.72,1.23-1.29,1.59-1.72ZM186,37c1.81.38,2.58,2.86,1.71,4.38a20.56,20.56,0,0,0-2.31.92c-.34.17-.31.23-.65.08l-6.45-2.65-16.11-6.69-1-.4L160.43,31c8.51,2,17,4.15,25.54,6Zm-5.74,5.32c-2.53,2.6-8.46,4.27-12.84,2.54-3.8-1.48-5.9-5.1-6.14-10.52l3,1.28c0,.61.07,5.36,4.32,6.63a6,6,0,0,0,6.64-2l5,2.12ZM162.74,49c-3.58-7.67-6.16-14.5-5.57-15.85l1.39-1.71.77,1.48c-.09,8.85,3.93,12.34,7.37,13.67a15.3,15.3,0,0,0,14.59-2.7l.81.21a16.35,16.35,0,0,0-2.2,1.74,24.07,24.07,0,0,0-3.46,4.94v-.09c-4.73-.76-9.3-1.31-13.71-1.69Zm8,16.06c2.16.1,4.09.23,5.65.37a34.58,34.58,0,0,0,3.14,6.91l-5,4.14-4.55-7.27s.46-2.19.74-4.15Zm6.09,34.6L170,105.24l-5.45-6.45L166,91.37l5.22,6.82,6.9-5.67-1.26,7.11Zm1.73-9.8-7,5.81-5.17-6.71,1.37-7.34,4.89,7.09,7.25-5.93-1.32,7.08ZM173.07,86l-4.89-7,1.34-7.24,4.6,7.33L181.63,73,180.35,80l-7.28,6Zm16.48,2.12-5.7,6.54-3-6.51,1.55-8.55,3,7.09L191,79.85l-1.49,8.3Zm-3.63-4.88L183,76.53h-.07L184.39,68l2.92,7.48,5.82-7.32-1.44,8.09-5.77,7Zm14.4,12.32L191.47,88l1.33-7.56,8.11,7.84,9.08-7,.43,7.2-10.1,7.12Zm1.29-17L209.39,72l.53,7.1-8.87,6.79-7.88-7.58,1.29-7.45,7.15,7.77Zm-6.19-13a77.6,77.6,0,0,1,13.77,2.52l.12,1.67-7.55,6.37L195,68.76l.4-3.18Zm15.65,3.08c1.48,2.24,3.65,6.2,4.41,7.33l2.1-5.11c.64.18,1.31.33,2,.46l.35,4.89-4,6.41-4.4-6.44-.47-7.54Zm2.16.69c.85.3,2,.86,2.85,1.18l-.86,2.23-2-3.41Zm3.39,24.81-4.39-6.28-.49-8.17L216,86l4.07-6.58.48,8.45-4,6.28Zm.68-27.56a81.6,81.6,0,0,0-29.48-5.33,18.55,18.55,0,0,1,6.56-4c5.93-2.17,13.42-1.45,20.6,2,11.24,5.42,19.65-.64,25.2-4.64a111.93,111.93,0,0,1,9.88-6,152.53,152.53,0,0,1,15.5-7.5c6.07-2.48,6.74-7.17,7.71-10,1.26-3.3,4.81-1.74,4.81-1.74,1-.55,4.65-3.87,5.17-3.73,0,0,2.28.94,1.64,2.34-.47,1-3.61,3.45-3.85,4.16a15.34,15.34,0,0,1-4.5,6.94c-3.69,2.64-.68,4.86,0,5.23a10,10,0,0,0,3.46,1c2.48.23,5.75-.78,7.85-.36.56.11,1.09.33,1.05.73s-.41.66-1.33.89a29,29,0,0,1-11.68-.1c-4.64-1.17-9.7-2.91-17.39,4.24-1.26,1.19-2.53,2.47-3.89,3.87s-2.6,2.65-4,4c-9.35,8.4-25.37,11.26-33.35,8.15ZM239.23,70,231.51,79,222,71.7c1.08.1,2.19.19,3.33.19a38.87,38.87,0,0,0,13.71-2.49l.16.62Zm-17.64,3.59,10.19,7.76,8-9.22,1.7,7.13L233,87.93l-11-7.66-.4-6.66ZM234.42,97l-11.87-7.73-.43-6.71,11.12,7.75,8.78-9,1.75,7.26L234.42,97ZM243,77.77l6,4,1.51-7.1,3,6.8-1.85,8.3-6.75-4L243,77.77Zm12.61,23.07-8-4.27-2-8.25,7.35,4.37,1.87-8.34,3,6.76-2.18,9.73ZM259.79,91l-5.35-12,7.63,5.53,1-6.1L267.37,91l-.58,5.47-7-5.43Zm13.13,16-4.13-12-.47,4.82-7.06-5.49,5.21,11.73,6.35,5.3.1-4.35Zm2.79-8.47-5.08-3.83-1.35-4v0l-2.6-7.55,5.86,3.72.69-4.88,3.39,11.11-.91,5.47ZM385.43,280.84c-3.27-3.62-6.46-7.41-9.51-11.34l9.51-5.74v17.08ZM356.16,63.37l-12,7.24-11.39-6.88,15.37-23.84,8-3.55v27ZM385.43,85l-12.06,7.27L361.31,85V47.15l12.06,7.28,12.06-7.28V85Zm0-43.67-12.06,7.27-12.06-7.27V34.07l15.61-6.89,8.51,6.48v7.63Zm5.15,245.05v-.79l11.82,7.12,11.55-7v22a283.84,283.84,0,0,1-23.37-21.4Zm23.36-6.5-11.55,7-11.82-7.13V242.3l11.82,7.12,11.55-7v37.38Zm0-43.23-11.55,7-11.82-7.13V199.06l11.82,7.14,11.55-7v37.38Zm0-43.24-11.55,7-11.82-7.14V155.82L402.39,163l11.55-7v37.38Zm0-43.24-11.55,7L390.57,150V112.58l11.82,7.14,11.55-7v37.37Zm0-43.24-11.55,7-11.82-7.12V69.36l11.82,7.12,11.55-7v37.37ZM402.39,70.61l-11.82-7.13V37.57l23.36,17.77v8.31l-11.54,7Zm30.88,251.65c-3.23-2.21-8.22-5.75-14.18-10.41V251l14.18,8.94v62.34Zm0-68.28-14.18-8.93V194.91l14.18,8.94V254Zm0-56.08L419.09,189V138.83l14.18,8.93V197.9Zm0-56.07-14.18-8.93V82.74l14.18,8.93v50.16Zm0-56.09-14.18-8.93V52.94L377.63,21.39l-33,14.6-31,48.11L284.24,101l-3.87-14.68,25.45-15.23,29.3-47,43-17L433.25,43V85.74ZM328.06,344.8a2.1,2.1,0,0,0-1.59-.11c-1,.34-1.71,2.13-2.18,3.08l3.73,1.71c.47-.94,1.39-2.47,1.08-3.48a1.81,1.81,0,0,0-1-1.2Zm-89.41-210L235,143.55h7.42l-3.76-8.71Zm65.77,0-3.65,8.71h7.36l-3.71-8.71Zm-28-100.69a2,2,0,1,1,2.06-2,2,2,0,0,1-2.06,2Zm64.71,289.27-6.95.47,6,3.36.92-3.83Zm-103.3,93.23,4-.63-3.08-6Z"/><path class="cls-1" d="M502.49,332.89h26.63V329h-20.2l10.18-9c6.69-5.83,9.63-9.26,9.63-14.81V305c0-6.21-5-10.78-11.81-10.78-6.7,0-10.29,3-13.72,8.11l3.16,2.29c3-4.25,5.88-6.53,10.23-6.53,4.14,0,7.68,2.83,7.68,7.29,0,3.81-2.12,6.75-7.95,12l-13.83,12.2v3.32Zm108.37.65c9.8,0,16.11-9,16.11-19.71v-.11c0-10.67-6.2-19.6-16-19.6s-16.17,9-16.17,19.71v.11c0,10.67,6.2,19.6,16.06,19.6Zm.11-3.92c-7.14,0-11.71-7.46-11.71-15.79v-.11c0-8.38,4.46-15.68,11.6-15.68s11.65,7.46,11.65,15.79v.11c0,8.33-4.41,15.68-11.54,15.68Zm80.92,3.27h26.63V329H698.31l10.19-9c6.69-5.83,9.63-9.26,9.63-14.81V305c0-6.21-5-10.78-11.81-10.78-6.7,0-10.29,3-13.72,8.11l3.16,2.29c3-4.25,5.88-6.53,10.23-6.53,4.14,0,7.68,2.83,7.68,7.29,0,3.81-2.12,6.75-7.95,12l-13.83,12.2v3.32Zm115,0h4.25V294.5H808l-9.31,3.21,1,3.49L806.9,299v33.92Zm88.55-14.16h15.13v-4.41H895.45v4.41ZM992,332.89h26.62V329H998.43l10.18-9c6.69-5.83,9.63-9.26,9.63-14.81V305c0-6.21-5-10.78-11.81-10.78-6.7,0-10.29,3-13.72,8.11l3.16,2.29c3-4.25,5.88-6.53,10.23-6.53,4.14,0,7.68,2.83,7.68,7.29,0,3.81-2.12,6.75-7.95,12L992,329.57v3.32Zm124.7.65c9.8,0,16.12-9,16.12-19.71v-.11c0-10.67-6.21-19.6-16-19.6s-16.17,9-16.17,19.71v.11c0,10.67,6.2,19.6,16.06,19.6Zm.11-3.92c-7.13,0-11.71-7.46-11.71-15.79v-.11c0-8.38,4.47-15.68,11.6-15.68s11.65,7.46,11.65,15.79v.11c0,8.33-4.41,15.68-11.54,15.68Zm97.26,3.27h26.62V329h-20.2l10.18-9c6.7-5.83,9.64-9.26,9.64-14.81V305c0-6.21-5-10.78-11.81-10.78-6.7,0-10.29,3-13.72,8.11l3.15,2.29c3-4.25,5.88-6.53,10.24-6.53,4.14,0,7.68,2.83,7.68,7.29,0,3.81-2.13,6.75-7.95,12l-13.83,12.2v3.32Zm128.78,0H1347v-9h5.93v-3.59H1347V294.5h-3.76l-21.56,26.25,1.09,3.1h20.09v9Zm-16-12.63,16-19.66v19.66Z"/><path class="cls-3" d="M492.2,85.11h5l12.33-16.57,12.32,16.57H527L512.23,65.4l14.26-18.82h-5.07L509.7,62.32,497.87,46.58h-5.12L507,65.46,492.2,85.11Zm54.92,0h5l12.33-16.57,12.32,16.57H582L567.15,65.4l14.26-18.82h-5.07L564.62,62.32,552.79,46.58h-5.12l14.25,18.88-14.8,19.65Zm58.22,0h4.35V46.58h-4.35V85.11Zm43.92.27h3.85l16.57-38.8H665L651.24,79.77,637.53,46.58h-4.84l16.57,38.8Zm89.26-.27H743l4.57-10.19h21L773,85.11h4.67l-17.55-38.8h-4.07l-17.56,38.8ZM749.25,71l8.81-19.65L766.81,71Zm57.07,14.09h4.4V69.81l16-23.23h-5.07l-13.1,19.26-13-19.26H790.3l16,23.28V85.11Zm57.78.6c9.63,0,16.07-5.83,16.07-17.06V46.58h-4.35V69c0,8.42-4.51,12.71-11.61,12.71-7.38,0-11.78-4.67-11.78-13V46.58h-4.35V69c0,10.9,6.5,16.73,16,16.73Zm41.38-.6h4.24V53.51l24.88,31.6h3.46V46.58h-4.23V77.46L909.55,46.58h-4.07V85.11Zm68.68,0h4.4V50.6H991.5v-4H961.23v4h12.93V85.11Zm32.24,0h4.46l4.57-10.19h21l4.51,10.19h4.68L1028,46.31H1024l-17.56,38.8ZM1017.14,71l8.8-19.65L1034.69,71Zm51.06,14.09h4.24V54l14,20.58h.22l14-20.64V85.11h4.35V46.58h-4.4l-14,21-14-21h-4.41V85.11Zm63.18,0h4.35V46.58h-4.35V85.11Zm30.65,0h28.12v-4h-23.77V67.66h21v-4h-21V50.54h23.5v-4H1162V85.11Zm51.89,0h4.24V53.51L1243,85.11h3.47V46.58h-4.24V77.46L1218,46.58h-4.08V85.11Zm68.68,0H1287V50.6h12.93v-4h-30.27v4h12.93V85.11Zm55.75.66c11.72,0,19.7-9.31,19.7-19.93v-.11c0-10.62-7.87-19.81-19.59-19.81s-19.71,9.3-19.71,19.92V66c0,10.62,7.87,19.82,19.6,19.82Zm.11-4c-8.81,0-15.19-7.16-15.19-15.91v-.11c0-8.75,6.27-15.79,15.08-15.79s15.19,7.15,15.19,15.9V66C1353.54,74.7,1347.26,81.75,1338.46,81.75Z"/></g></g></svg>